<svg xmlns="http://www.w3.org/2000/svg" width="89.625" height="16.57" viewBox="0 0 89.625 16.57">
  <g id="androidtv" transform="translate(-1017.164 -2269.474)">
    <g id="android-5" transform="translate(1016.908 2273.506)">
      <path id="Path_60212" data-name="Path 60212" d="M.256,10.292A7.121,7.121,0,0,1,.631,7.951,5.93,5.93,0,0,1,1.683,6.059,4.878,4.878,0,0,1,3.3,4.794a4.639,4.639,0,0,1,2.063-.46,4.111,4.111,0,0,1,1.547.28,4.166,4.166,0,0,1,1.35.918V4.558H10.8V16.029H8.26v-.976a4.163,4.163,0,0,1-1.347.918,4.109,4.109,0,0,1-1.547.28,4.639,4.639,0,0,1-2.062-.46,4.877,4.877,0,0,1-1.621-1.267A5.931,5.931,0,0,1,.631,12.634a7.12,7.12,0,0,1-.376-2.341Zm5.438,3.282a2.93,2.93,0,0,0,.631-.073,2.733,2.733,0,0,0,.666-.247,3.1,3.1,0,0,0,.656-.465,4.032,4.032,0,0,0,.613-.717V8.512A3.869,3.869,0,0,0,7.646,7.8a3.4,3.4,0,0,0-.656-.465,2.6,2.6,0,0,0-.666-.252,2.938,2.938,0,0,0-.631-.073,2.532,2.532,0,0,0-1.107.247,2.713,2.713,0,0,0-.9.686,3.28,3.28,0,0,0-.6,1.042,4.062,4.062,0,0,0,0,2.61,3.281,3.281,0,0,0,.6,1.044,2.714,2.714,0,0,0,.9.686,2.537,2.537,0,0,0,1.107.25ZM17.158,7.165a2.022,2.022,0,0,0-1.568.641,2.54,2.54,0,0,0-.685,1.7v6.516H12.363V9.587a5.167,5.167,0,0,1,4.759-5.254h.071a5.167,5.167,0,0,1,4.759,5.254v6.441H19.409V9.512a2.54,2.54,0,0,0-.685-1.7,2.022,2.022,0,0,0-1.568-.641m6,3.127a7.121,7.121,0,0,1,.376-2.341,5.933,5.933,0,0,1,1.053-1.9A4.878,4.878,0,0,1,26.2,4.794a4.64,4.64,0,0,1,2.062-.46,3.863,3.863,0,0,1,2.894,1.19v-4.4H33.7V16.028H31.157v-.964a3.971,3.971,0,0,1-1.342.913,4.225,4.225,0,0,1-1.552.274,4.639,4.639,0,0,1-2.063-.46,4.879,4.879,0,0,1-1.616-1.267,5.929,5.929,0,0,1-1.051-1.893,7.113,7.113,0,0,1-.377-2.34Zm5.438,3.282a2.93,2.93,0,0,0,.631-.073,2.733,2.733,0,0,0,.666-.247,3.1,3.1,0,0,0,.656-.465,4.038,4.038,0,0,0,.613-.717V8.512a3.869,3.869,0,0,0-.613-.712,3.4,3.4,0,0,0-.656-.465,2.6,2.6,0,0,0-.666-.252,2.94,2.94,0,0,0-.631-.073,2.533,2.533,0,0,0-1.107.247,2.712,2.712,0,0,0-.9.686,3.278,3.278,0,0,0-.6,1.042,4.065,4.065,0,0,0,0,2.61,3.28,3.28,0,0,0,.6,1.042,2.714,2.714,0,0,0,.9.686,2.535,2.535,0,0,0,1.107.246Zm17.018,0a2.472,2.472,0,0,0,1.073-.241,2.661,2.661,0,0,0,.881-.677,3.264,3.264,0,0,0,.591-1.036,3.9,3.9,0,0,0,.215-1.327,3.79,3.79,0,0,0-.221-1.316,3.288,3.288,0,0,0-.6-1.036,2.8,2.8,0,0,0-.881-.686,2.372,2.372,0,0,0-1.061-.247,2.426,2.426,0,0,0-1.073.247,2.73,2.73,0,0,0-.881.686,3.341,3.341,0,0,0-.6,1.036,3.79,3.79,0,0,0-.221,1.316,3.9,3.9,0,0,0,.215,1.327,3.262,3.262,0,0,0,.591,1.036,2.66,2.66,0,0,0,.881.677,2.494,2.494,0,0,0,1.087.238Zm0,2.677a4.98,4.98,0,0,1-2.093-.448,5.584,5.584,0,0,1-2.879-3.142,6.47,6.47,0,0,1-.425-2.37,6.335,6.335,0,0,1,.425-2.33,5.414,5.414,0,0,1,4.972-3.629A4.828,4.828,0,0,1,47.7,4.8a5.709,5.709,0,0,1,2.869,3.163A6.335,6.335,0,0,1,51,10.293a6.249,6.249,0,0,1-1.587,4.263A5.315,5.315,0,0,1,47.7,15.8a4.944,4.944,0,0,1-2.088.447Zm7.8-12.6a1.309,1.309,0,0,1-.585-.135,1.665,1.665,0,0,1-.811-.907,1.775,1.775,0,0,1-.121-.654,1.815,1.815,0,0,1,.121-.659,1.759,1.759,0,0,1,.329-.545A1.571,1.571,0,0,1,52.826.39a1.31,1.31,0,0,1,.585-.135A1.339,1.339,0,0,1,54,.39a1.635,1.635,0,0,1,.816.913,1.816,1.816,0,0,1,.121.659,1.793,1.793,0,0,1-.45,1.194A1.553,1.553,0,0,1,54,3.525a1.339,1.339,0,0,1-.589.135Zm-1.272.9h2.544V16.029H52.138Zm3.713,5.735a7.121,7.121,0,0,1,.376-2.341,5.93,5.93,0,0,1,1.051-1.893A4.878,4.878,0,0,1,58.9,4.794a4.639,4.639,0,0,1,2.062-.46,3.87,3.87,0,0,1,2.895,1.189v-4.4H66.4V16.028H63.852v-.964a3.971,3.971,0,0,1-1.342.913,4.225,4.225,0,0,1-1.552.274,4.639,4.639,0,0,1-2.062-.46,4.878,4.878,0,0,1-1.617-1.265,5.93,5.93,0,0,1-1.052-1.893,7.12,7.12,0,0,1-.374-2.341Zm5.438,3.282a2.929,2.929,0,0,0,.631-.073,2.731,2.731,0,0,0,.666-.247,3.092,3.092,0,0,0,.656-.465,4.032,4.032,0,0,0,.613-.717V8.512a3.869,3.869,0,0,0-.613-.712,3.393,3.393,0,0,0-.656-.465,2.6,2.6,0,0,0-.666-.252,2.938,2.938,0,0,0-.631-.073,2.532,2.532,0,0,0-1.107.247,2.713,2.713,0,0,0-.9.686,3.281,3.281,0,0,0-.6,1.042,4.062,4.062,0,0,0,0,2.61,3.281,3.281,0,0,0,.6,1.042,2.714,2.714,0,0,0,.9.686,2.537,2.537,0,0,0,1.107.253ZM39.972,7.131A2.185,2.185,0,0,0,37.52,9.509v6.516H34.972V9.587c.015-2.686,1.4-5.326,5-5.326" transform="translate(0 -4.287)" fill="#909090"/>
      <g id="Group_32668" data-name="Group 32668" transform="translate(70.584 -3.194)">
        <path id="Path_60216" data-name="Path 60216" d="M21218.5,8446.13v10.955a3.221,3.221,0,0,0,1.2,2.507,4.529,4.529,0,0,0,2.965,1.019" transform="translate(-21218.041 -8446.13)" fill="none" stroke="#868686" stroke-width="2.5"/>
        <line id="Line_1168" data-name="Line 1168" x2="5" transform="translate(0 3.816)" fill="none" stroke="#868686" stroke-width="2.3"/>
        <path id="Path_60217" data-name="Path 60217" d="M21224.7,8450.47l5.521,12.63,5.033-12.63" transform="translate(-21217.582 -8448.614)" fill="none" stroke="#868686" stroke-linecap="square" stroke-linejoin="bevel" stroke-width="2.5"/>
      </g>
    </g>
  </g>
</svg>
