<svg xmlns="http://www.w3.org/2000/svg" width="140.001" height="40.001" viewBox="0 0 140.001 40.001">
  <g id="download-on-the-app-store-apple-logo" transform="translate(0.001 0)">
    <path id="Path_60218" data-name="Path 60218" d="M141.705,37.884a3.752,3.752,0,0,1-1.165,2.705,4.055,4.055,0,0,1-2.813,1.119H7.545a3.907,3.907,0,0,1-3.983-3.824V7.39A3.911,3.911,0,0,1,7.545,3.561H137.726A3.905,3.905,0,0,1,141.7,7.39V37.884Z" transform="translate(-2.636 -2.635)" fill="#fff"/>
    <path id="Path_60219" data-name="Path 60219" d="M135.094,40H4.907A4.822,4.822,0,0,1,0,35.279V4.727A4.825,4.825,0,0,1,4.907,0H135.093A4.827,4.827,0,0,1,140,4.727v30.55A4.822,4.822,0,0,1,135.094,40Z" transform="translate(0 0)" fill="none"/>
    <path id="Path_60220" data-name="Path 60220" d="M143.562,39.552a4.019,4.019,0,0,1-4.031,4.01H7.6a4.024,4.024,0,0,1-4.037-4.01V7.576A4.029,4.029,0,0,1,7.6,3.561H139.53a4.023,4.023,0,0,1,4.032,4.015V39.552Z" transform="translate(-3.563 -3.561)"/>
    <path id="Path_60221" data-name="Path 60221" d="M69.237,38.991a6.031,6.031,0,0,1,2.873-5.061,6.18,6.18,0,0,0-4.866-2.63c-2.047-.215-4.033,1.225-5.076,1.225-1.064,0-2.669-1.2-4.4-1.168a6.479,6.479,0,0,0-5.453,3.325c-2.358,4.082-.6,10.08,1.66,13.379,1.13,1.617,2.451,3.42,4.18,3.357,1.691-.069,2.323-1.077,4.364-1.077,2.022,0,2.615,1.077,4.378,1.036,1.815-.028,2.958-1.623,4.048-3.254a13.336,13.336,0,0,0,1.851-3.77,5.835,5.835,0,0,1-3.559-5.363Zm-3.33-9.861a5.936,5.936,0,0,0,1.359-4.254A6.05,6.05,0,0,0,63.355,26.9a5.649,5.649,0,0,0-1.395,4.1A5,5,0,0,0,65.907,29.129Z" transform="translate(-37.882 -19.096)" fill="#fff"/>
    <g id="Group_32669" data-name="Group 32669" transform="translate(43.736 17.12)">
      <path id="Path_60223" data-name="Path 60223" d="M181.5,86.067h-2.363L177.846,82h-4.5l-1.233,4.067h-2.3l4.46-13.846h2.754Zm-4.048-5.773-1.171-3.616q-.186-.554-.7-2.608h-.042q-.206.883-.658,2.608l-1.151,3.616Zm15.494.659a5.653,5.653,0,0,1-1.384,4.026,4.059,4.059,0,0,1-3.078,1.315,3.082,3.082,0,0,1-2.852-1.416v5.239h-2.219V79.365q0-1.6-.082-3.282h1.951l.124,1.583h.042a3.948,3.948,0,0,1,6.318-.392A5.52,5.52,0,0,1,192.95,80.952Zm-2.26.081a4.115,4.115,0,0,0-.658-2.4,2.273,2.273,0,0,0-1.932-.985,2.308,2.308,0,0,0-1.489.544,2.524,2.524,0,0,0-.873,1.429,2.9,2.9,0,0,0-.1.675v1.666a2.671,2.671,0,0,0,.668,1.84,2.218,2.218,0,0,0,1.736.75,2.274,2.274,0,0,0,1.951-.966A4.249,4.249,0,0,0,190.69,81.033Zm13.747-.081a5.653,5.653,0,0,1-1.384,4.026,4.061,4.061,0,0,1-3.08,1.315,3.082,3.082,0,0,1-2.852-1.416v5.239H194.9V79.365q0-1.6-.082-3.282h1.951l.124,1.583h.042a3.949,3.949,0,0,1,6.319-.392,5.526,5.526,0,0,1,1.18,3.679Zm-2.262.081a4.116,4.116,0,0,0-.659-2.4,2.27,2.27,0,0,0-1.93-.985,2.317,2.317,0,0,0-1.491.544,2.522,2.522,0,0,0-.872,1.429,2.963,2.963,0,0,0-.1.675v1.666a2.68,2.68,0,0,0,.667,1.84,2.223,2.223,0,0,0,1.738.75,2.272,2.272,0,0,0,1.951-.966A4.249,4.249,0,0,0,202.175,81.033Zm15.1,1.15a3.7,3.7,0,0,1-1.231,2.877,5.458,5.458,0,0,1-3.773,1.212,6.586,6.586,0,0,1-3.586-.863l.513-1.849a6.174,6.174,0,0,0,3.205.864,3.025,3.025,0,0,0,1.951-.565,1.845,1.845,0,0,0,.7-1.509,1.933,1.933,0,0,0-.577-1.418,5.345,5.345,0,0,0-1.911-1.068q-3.637-1.356-3.638-3.966a3.5,3.5,0,0,1,1.284-2.794,5.079,5.079,0,0,1,3.4-1.089,6.722,6.722,0,0,1,3.144.658l-.557,1.808a5.5,5.5,0,0,0-2.661-.637,2.707,2.707,0,0,0-1.836.575,1.646,1.646,0,0,0-.557,1.255,1.7,1.7,0,0,0,.638,1.356A7.187,7.187,0,0,0,213.8,78.1a6.823,6.823,0,0,1,2.63,1.683,3.508,3.508,0,0,1,.846,2.4Zm7.355-4.435h-2.446V82.6q0,1.849,1.295,1.848a3.9,3.9,0,0,0,.986-.1l.061,1.684a5.028,5.028,0,0,1-1.726.246,2.66,2.66,0,0,1-2.055-.8,3.933,3.933,0,0,1-.74-2.692V77.744h-1.457V76.079h1.457V74.251l2.179-.658v2.486h2.446Zm11.013,3.245a5.476,5.476,0,0,1-1.316,3.78,4.69,4.69,0,0,1-3.657,1.52,4.47,4.47,0,0,1-3.5-1.457,5.31,5.31,0,0,1-1.305-3.677,5.432,5.432,0,0,1,1.346-3.8,4.665,4.665,0,0,1,3.628-1.48,4.564,4.564,0,0,1,3.533,1.459A5.241,5.241,0,0,1,235.647,80.993Zm-2.3.051a4.47,4.47,0,0,0-.594-2.356,2.2,2.2,0,0,0-1.994-1.189,2.228,2.228,0,0,0-2.035,1.189,4.544,4.544,0,0,0-.6,2.4,4.457,4.457,0,0,0,.6,2.357,2.276,2.276,0,0,0,4.01-.02A4.488,4.488,0,0,0,233.347,81.044Zm9.515-3.01a3.863,3.863,0,0,0-.7-.061,2.094,2.094,0,0,0-1.809.884,3.33,3.33,0,0,0-.554,1.972v5.239h-2.219v-6.84q0-1.572-.065-3.143h1.933l.081,1.91h.061a3.425,3.425,0,0,1,1.109-1.583,2.683,2.683,0,0,1,1.6-.535,3.564,3.564,0,0,1,.555.041Zm9.923,2.569a5.2,5.2,0,0,1-.081,1.006h-6.657a2.9,2.9,0,0,0,.966,2.262,3.3,3.3,0,0,0,2.177.7,7.364,7.364,0,0,0,2.693-.471l.348,1.539a8.329,8.329,0,0,1-3.348.617,4.854,4.854,0,0,1-3.649-1.365,5.046,5.046,0,0,1-1.325-3.667,5.718,5.718,0,0,1,1.234-3.758,4.253,4.253,0,0,1,3.492-1.6,3.722,3.722,0,0,1,3.269,1.6A5.388,5.388,0,0,1,252.786,80.6Zm-2.116-.575a3,3,0,0,0-.431-1.705,1.938,1.938,0,0,0-1.767-.926,2.1,2.1,0,0,0-1.766.9,3.313,3.313,0,0,0-.657,1.725l4.621,0Z" transform="translate(-169.812 -72.016)" fill="#fff"/>
    </g>
    <g id="Group_32670" data-name="Group 32670" transform="translate(45.035 6.499)">
      <path id="Path_60224" data-name="Path 60224" d="M176.4,33.438a14.172,14.172,0,0,1-1.6-.081V26.662a12.082,12.082,0,0,1,1.879-.142c2.545,0,3.716,1.252,3.716,3.292C180.4,32.166,179.017,33.438,176.4,33.438Zm.373-6.059a4.452,4.452,0,0,0-.878.071v5.089a5.759,5.759,0,0,0,.737.03,2.411,2.411,0,0,0,2.616-2.726A2.22,2.22,0,0,0,176.774,27.379Zm7.279,6.11a2.336,2.336,0,0,1-2.364-2.524,2.39,2.39,0,0,1,2.445-2.595,2.317,2.317,0,0,1,2.363,2.515,2.4,2.4,0,0,1-2.445,2.6Zm.042-4.322c-.788,0-1.293.737-1.293,1.767,0,1.01.515,1.747,1.282,1.747s1.282-.788,1.282-1.768C185.367,29.914,184.862,29.167,184.095,29.167Zm10.581-.7-1.535,4.907h-1l-.636-2.131a16.152,16.152,0,0,1-.394-1.585h-.021a10.619,10.619,0,0,1-.393,1.585l-.676,2.131h-1.011l-1.445-4.907h1.121l.556,2.333q.2.833.333,1.575h.021c.08-.413.211-.929.4-1.565l.7-2.342h.889l.667,2.292c.161.556.292,1.1.394,1.616h.029a14.121,14.121,0,0,1,.333-1.616l.6-2.292h1.071Zm5.651,4.907h-1.091V30.56c0-.868-.333-1.3-.99-1.3a1.133,1.133,0,0,0-1.091,1.2v2.918h-1.091v-3.5c0-.434-.01-.9-.041-1.4h.96l.051.757h.03a1.763,1.763,0,0,1,1.556-.857c1.03,0,1.707.788,1.707,2.069v2.938Zm3.008,0h-1.092V26.219h1.092Zm3.977.111a2.336,2.336,0,0,1-2.364-2.524,2.39,2.39,0,0,1,2.444-2.595,2.317,2.317,0,0,1,2.364,2.515,2.4,2.4,0,0,1-2.444,2.6Zm.041-4.322c-.788,0-1.293.737-1.293,1.767,0,1.01.516,1.747,1.281,1.747s1.282-.788,1.282-1.768C208.624,29.914,208.12,29.167,207.352,29.167Zm6.7,4.211-.079-.565h-.029a1.676,1.676,0,0,1-1.435.676,1.427,1.427,0,0,1-1.5-1.444c0-1.211,1.05-1.837,2.868-1.837v-.091c0-.646-.342-.97-1.019-.97a2.3,2.3,0,0,0-1.282.364l-.222-.717a3.138,3.138,0,0,1,1.685-.425c1.282,0,1.93.676,1.93,2.03v1.807a7.409,7.409,0,0,0,.071,1.172h-.983Zm-.15-2.444c-1.211,0-1.819.293-1.819.989a.7.7,0,0,0,.748.767,1.044,1.044,0,0,0,1.071-1Zm6.359,2.444-.051-.788h-.03a1.645,1.645,0,0,1-1.576.9,2.236,2.236,0,0,1-2.06-2.5c0-1.535.909-2.616,2.149-2.616a1.475,1.475,0,0,1,1.384.667h.022V26.219h1.092v5.836c0,.474.011.919.041,1.322h-.971ZM220.1,30.49a1.187,1.187,0,0,0-1.149-1.272c-.809,0-1.3.717-1.3,1.726,0,.989.513,1.667,1.281,1.667a1.225,1.225,0,0,0,1.171-1.3V30.49Zm8.014,3a2.335,2.335,0,0,1-2.362-2.524A2.39,2.39,0,0,1,228.2,28.37a2.317,2.317,0,0,1,2.364,2.515,2.4,2.4,0,0,1-2.445,2.6Zm.041-4.322c-.787,0-1.292.737-1.292,1.767,0,1.01.515,1.747,1.281,1.747s1.282-.788,1.282-1.768c0-1-.5-1.746-1.272-1.746Zm8.27,4.211h-1.092V30.56c0-.868-.333-1.3-.99-1.3a1.132,1.132,0,0,0-1.09,1.2v2.918h-1.092v-3.5c0-.434-.01-.9-.041-1.4h.96l.051.757h.03a1.762,1.762,0,0,1,1.555-.858c1.03,0,1.708.788,1.708,2.069Zm7.338-4.089h-1.2v2.383c0,.607.21.909.635.909a2.149,2.149,0,0,0,.484-.051l.03.828a2.417,2.417,0,0,1-.846.122c-.86,0-1.374-.474-1.374-1.717V29.289h-.716v-.818h.716v-.9l1.071-.324V28.47h1.2Zm5.774,4.089h-1.09v-2.8c0-.878-.332-1.322-.99-1.322a1.07,1.07,0,0,0-1.092,1.161v2.958h-1.09V26.219h1.09v2.948h.022a1.655,1.655,0,0,1,1.476-.8c1.039,0,1.673.807,1.673,2.09v2.918Zm5.916-2.191h-3.273a1.408,1.408,0,0,0,1.547,1.454,3.687,3.687,0,0,0,1.323-.232l.17.757a4.1,4.1,0,0,1-1.646.3,2.278,2.278,0,0,1-2.444-2.473,2.4,2.4,0,0,1,2.321-2.635,2.061,2.061,0,0,1,2.041,2.333,2.1,2.1,0,0,1-.037.494Zm-1-.777c0-.757-.382-1.292-1.079-1.292a1.294,1.294,0,0,0-1.193,1.292h2.272Z" transform="translate(-174.806 -26.219)" fill="#fff"/>
    </g>
  </g>
</svg>
