<svg xmlns="http://www.w3.org/2000/svg" width="129" height="30" viewBox="0 0 129 30">
  <g id="chromecast" transform="translate(-1617 -2264)">
    <g id="Rectangle_10330" data-name="Rectangle 10330" transform="translate(1617 2264)" fill="#fff" stroke="#707070" stroke-width="1" opacity="0">
      <rect width="129" height="30" stroke="none"/>
      <rect x="0.5" y="0.5" width="128" height="29" fill="none"/>
    </g>
    <g id="Chromecast_logo" transform="translate(1617.248 3207.604)">
      <path id="Path_60133" data-name="Path 60133" d="M1545-773.209v6.791h1.47v-2.7c0-1.71.01-2.818.028-3.023a3.135,3.135,0,0,1,.872-2.265,2.683,2.683,0,0,1,1.13-.509,3.447,3.447,0,0,1,.834-.058,2.488,2.488,0,0,1,.8.061,1.763,1.763,0,0,1,1.419,1.607c.033.2.038.737.038,3.57v3.34h.134c.071,0,.4.015.735.03l.6.03v-3.142c0-1.944-.01-3.3-.028-3.548a2.978,2.978,0,0,0-1.148-2.453,4.331,4.331,0,0,0-2.587-.593,3.144,3.144,0,0,0-1.766.481,3.314,3.314,0,0,0-.943.846c-.109.152-.208.188-.182.063a24.065,24.065,0,0,0,.066-2.952V-780H1545Z" transform="translate(-1504.797 -156.437)" fill="#717171"/>
      <path id="Path_60134" data-name="Path 60134" d="M4777.99-706.97c-.007.018-.137.471-.291,1.008s-.287.991-.3,1.009a1.045,1.045,0,0,1-.271.142c-.14.058-.452.19-.689.294l-.438.185v.651h1.391l.01,3.122a25.5,25.5,0,0,0,.063,3.406,2.281,2.281,0,0,0,1.439,1.911,3.224,3.224,0,0,0,1,.2,3.552,3.552,0,0,0,1.591-.21l.165-.061.007-.583.006-.583-.132.033a3.448,3.448,0,0,1-1.108.17,1.684,1.684,0,0,1-.873-.157,1.621,1.621,0,0,1-.653-.808c-.12-.34-.122-.39-.122-3.509v-2.932h2.813v-1.09l-1.4-.005-1.4-.008-.008-1.11V-707h-.393C4778.1-707,4778-706.992,4777.99-706.97Z" transform="translate(-4653.924 -227.587)" fill="#717171"/>
      <path id="Path_60135" data-name="Path 60135" d="M2694.8-630.591a2.957,2.957,0,0,0-1.467.557,3.84,3.84,0,0,0-.745.742c-.119.16-.172.2-.2.149-.008-.01-.061-.314-.122-.671l-.109-.651H2691v9.553h1.442l.01-2.858c.008-2.448.015-2.9.051-3.135a4.147,4.147,0,0,1,.289-1.138,2.375,2.375,0,0,1,2.44-1.348,1.891,1.891,0,0,1,1.353.484,2.055,2.055,0,0,1,.6,1.444c.015.18.025,1.614.025,3.477v3.175h1.445v-2.719a26.69,26.69,0,0,1,.089-3.646,2.377,2.377,0,0,1,2.113-2.177,3.99,3.99,0,0,1,1.194.053,1.553,1.553,0,0,1,.786.456,1.874,1.874,0,0,1,.527,1.059c.035.172.041.606.048,3.558l.01,3.365h1.315V-624c0-1.906-.01-3.294-.025-3.54a3.357,3.357,0,0,0-.983-2.422,3.238,3.238,0,0,0-1.888-.634,4.043,4.043,0,0,0-2.088.365,3.207,3.207,0,0,0-1.227,1.031c-.165.253-.2.259-.3.043a2.738,2.738,0,0,0-.221-.36,2.657,2.657,0,0,0-1.867-1.039,7.651,7.651,0,0,0-1.339-.035Z" transform="translate(-2621.758 -302.045)" fill="#717171"/>
      <path id="Path_60136" data-name="Path 60136" d="M3339.69-630.872a3.639,3.639,0,0,0-2.653,1.609,5.479,5.479,0,0,0-.859,2.681,10.191,10.191,0,0,0,.041,1.7,4.7,4.7,0,0,0,1.455,2.876,4.061,4.061,0,0,0,2.4,1.039,16.378,16.378,0,0,0,2.235-.036,6.748,6.748,0,0,0,1.376-.378l.2-.079v-1.3l-.17.073a8.014,8.014,0,0,1-2.047.537,7.13,7.13,0,0,1-1.5-.015,2.656,2.656,0,0,1-1.579-.811,3.456,3.456,0,0,1-.9-2.379l-.013-.246h6.588v-.717a5.074,5.074,0,0,0-.479-2.539,3.771,3.771,0,0,0-.7-1.016,3.42,3.42,0,0,0-2.045-.986A7.992,7.992,0,0,0,3339.69-630.872Zm1.335,1.3a2.642,2.642,0,0,1,1.082.57,2.931,2.931,0,0,1,.456.94,4.372,4.372,0,0,1,.157,1.014l.005.215-2.524.008-2.524.005.013-.132a3.191,3.191,0,0,1,1.211-2.311,2.53,2.53,0,0,1,.864-.342l.241-.038a3.945,3.945,0,0,1,.418,0,2.09,2.09,0,0,1,.606.073Z" transform="translate(-3250.569 -301.763)" fill="#717171"/>
      <path id="Path_60137" data-name="Path 60137" d="M1190.48-627.558a4.427,4.427,0,0,0-1.84.618,4.5,4.5,0,0,0-1.3,1.384,5.913,5.913,0,0,0-.641,2.987,6.838,6.838,0,0,0,.2,1.812,4.036,4.036,0,0,0,1.087,1.979,4.149,4.149,0,0,0,2.128,1.016,10.285,10.285,0,0,0,2.015,0,7.137,7.137,0,0,0,1.161-.284l.259-.094v-1.232l-.182.076a5.506,5.506,0,0,1-3.15.319,2.067,2.067,0,0,1-1.231-.829,4.368,4.368,0,0,1-.75-2.98,5.259,5.259,0,0,1,.182-1.417,2.592,2.592,0,0,1,1.992-2,3.819,3.819,0,0,1,1.034-.063,8.349,8.349,0,0,1,1.754.4l.063.033.21-.606c.117-.334.21-.616.21-.626a3.34,3.34,0,0,0-.742-.3,7.479,7.479,0,0,0-1.7-.2,7.553,7.553,0,0,0-.759.007Z" transform="translate(-1155.577 -304.999)" fill="#717171"/>
      <path id="Path_60138" data-name="Path 60138" d="M1985-627.854a3.966,3.966,0,0,0-1.13.322,1.338,1.338,0,0,0-.474.337,6.391,6.391,0,0,0-.963,1.178.144.144,0,0,1-.089.071c-.043,0-.053-.073-.117-.857-.035-.469-.066-.869-.066-.887a1.867,1.867,0,0,0-.583-.03H1981v9.6h1.444v-2.68a17.081,17.081,0,0,1,.1-3.383,3.639,3.639,0,0,1,.846-1.609,2.39,2.39,0,0,1,1.586-.813,3.363,3.363,0,0,1,1.064.079c.132.025.243.043.246.041s.053-.291.111-.644a3.426,3.426,0,0,0,.084-.661,6.713,6.713,0,0,0-1.481-.064Z" transform="translate(-1929.749 -304.713)" fill="#717171"/>
      <path id="Path_60139" data-name="Path 60139" d="M3736.93-627.633c-.035.005-.164.023-.291.038a4.072,4.072,0,0,0-1.88.73,5.676,5.676,0,0,0-.844.846,5.441,5.441,0,0,0-.912,3.375,5.6,5.6,0,0,0,.962,3.456A4.08,4.08,0,0,0,3735.74-618a4.892,4.892,0,0,0,1.873.223,5.287,5.287,0,0,0,2.05-.352l.182-.076v-1.234l-.134.061a5.477,5.477,0,0,1-2.07.436,2.562,2.562,0,0,1-2.189-.735,4.038,4.038,0,0,1-.91-2.944,4.773,4.773,0,0,1,.416-2.255,2.45,2.45,0,0,1,1.746-1.391,3.874,3.874,0,0,1,1.062-.066,10.572,10.572,0,0,1,1.533.317.913.913,0,0,0,.273.068c.023-.023.433-1.2.423-1.206a5.745,5.745,0,0,0-.606-.241,7.072,7.072,0,0,0-1.85-.243C3737.24-627.641,3736.96-627.641,3736.93-627.633Z" transform="translate(-3637.354 -304.937)" fill="#717171"/>
      <path id="Path_60140" data-name="Path 60140" d="M4069.95-625.67a7.463,7.463,0,0,0-2.729.717l-.183.089.208.525c.114.286.215.53.223.537a.783.783,0,0,0,.24-.089,5.751,5.751,0,0,1,2.818-.606,1.657,1.657,0,0,1,1.2.479,2.5,2.5,0,0,1,.551,1.926c0,.4,0,.408-.056.418-.033.008-.4.025-.819.041a15.325,15.325,0,0,0-2.5.205c-1.931.375-2.912,1.338-2.912,2.861a2.77,2.77,0,0,0,.791,2.027,2.583,2.583,0,0,0,1.452.712,10.414,10.414,0,0,0,1.71,0,2.7,2.7,0,0,0,1.188-.456,5.641,5.641,0,0,0,.928-.877.588.588,0,0,1,.169-.167c.053,0,.051-.008.223.778l.137.616h1.006l-.011-3.593a29.484,29.484,0,0,0-.063-3.869,2.434,2.434,0,0,0-1.386-1.969,5.2,5.2,0,0,0-2.181-.305Zm2.171,5.714a3.587,3.587,0,0,1-.075,1.021,2.34,2.34,0,0,1-.363.826,2.1,2.1,0,0,1-.89.78,3.4,3.4,0,0,1-1.515.312,2.337,2.337,0,0,1-.925-.157,2.408,2.408,0,0,1-.621-.372,1.473,1.473,0,0,1-.307-.654,2.9,2.9,0,0,1,.041-1.09c.294-.938,1.151-1.264,3.636-1.391.35-.018.722-.036.834-.038h.2Z" transform="translate(-3961.916 -306.847)" fill="#717171"/>
      <path id="Path_60141" data-name="Path 60141" d="M2253.39-624.853a4.027,4.027,0,0,0-2.524,1.265,3.032,3.032,0,0,0-.438.537,6,6,0,0,0-.76,3.591,4.879,4.879,0,0,0,1.036,3.018,3.408,3.408,0,0,0,1.295,1.006,4.383,4.383,0,0,0,2.05.446,4.073,4.073,0,0,0,3.031-1.158,4.4,4.4,0,0,0,1.249-2.575,7.03,7.03,0,0,0-.375-3.811,4.665,4.665,0,0,0-1.282-1.571,3.93,3.93,0,0,0-1.863-.737A8.559,8.559,0,0,0,2253.39-624.853Zm1.3,1.133c1.249.271,1.961,1.2,2.172,2.818a13.076,13.076,0,0,1,0,1.774,3.866,3.866,0,0,1-.877,2.164,2.172,2.172,0,0,1-.876.57,3.6,3.6,0,0,1-2.342-.068,2.844,2.844,0,0,1-1.531-2.134,5.911,5.911,0,0,1-.117-1.444,5.835,5.835,0,0,1,.155-1.571,2.424,2.424,0,0,1,2.164-2.154,5.588,5.588,0,0,1,1.247.045Z" transform="translate(-2191.595 -307.629)" fill="#717171"/>
      <path id="Path_60142" data-name="Path 60142" d="M4463.93-624.661a3.841,3.841,0,0,0-2.191.93,1.9,1.9,0,0,0-.588,1.4,2,2,0,0,0,.167.971,2.056,2.056,0,0,0,.973,1.112,7.851,7.851,0,0,0,1.563.727c1.728.7,1.906.788,2.324,1.176a1.105,1.105,0,0,1,.415.953c-.007.692-.314,1.031-1.143,1.27a3.626,3.626,0,0,1-1.229.137,5.846,5.846,0,0,1-1.916-.279,5.965,5.965,0,0,1-.964-.357,1.041,1.041,0,0,0-.134-.061c-.007,0-.013.294-.013.654v.654l.262.111a6.113,6.113,0,0,0,2.248.456,4.463,4.463,0,0,0,3.694-1.122,2.475,2.475,0,0,0,.578-1.827c-.061-.953-.521-1.531-1.65-2.068-.494-.236-.4-.193-.95-.418-.146-.061-.329-.137-.4-.172-.185-.084-.791-.342-1.077-.461a2.574,2.574,0,0,1-1.158-.773,1.094,1.094,0,0,1-.046-1.178c.31-.443.85-.628,1.838-.628a6.553,6.553,0,0,1,2.369.474l.3.109.243-.565c.134-.309.243-.575.243-.588a5.071,5.071,0,0,0-.94-.367,7.328,7.328,0,0,0-1.037-.233,12.21,12.21,0,0,0-1.78-.037Z" transform="translate(-4347.049 -307.823)" fill="#717171"/>
      <path id="Path_60143" data-name="Path 60143" d="M1.081-444.788c0,.028.008.035.015.015a.051.051,0,0,0,0-.048C1.086-444.831,1.078-444.816,1.081-444.788Z" transform="translate(0 -483.119)"/>
      <path id="Path_60144" data-name="Path 60144" d="M2.2-432.51c0,.035.005.048.013.03a.134.134,0,0,0,0-.063C2.2-432.559,2.2-432.546,2.2-432.51Z" transform="translate(-1.092 -495.083)"/>
      <path id="Path_60145" data-name="Path 60145" d="M3.2-423.461c0,.041.005.056.013.03a.192.192,0,0,0,0-.076C3.2-423.521,3.2-423.5,3.2-423.461Z" transform="translate(-2.066 -503.892)"/>
      <path id="Path_60146" data-name="Path 60146" d="M4.2-415.461c0,.041.005.056.013.03a.191.191,0,0,0,0-.076C4.2-415.521,4.2-415.5,4.2-415.461Z" transform="translate(-3.041 -511.689)"/>
      <path id="Path_60147" data-name="Path 60147" d="M5.2-408.461c0,.041.005.056.013.03a.191.191,0,0,0,0-.076C5.2-408.521,5.2-408.5,5.2-408.461Z" transform="translate(-4.016 -518.512)"/>
      <path id="Path_60148" data-name="Path 60148" d="M6.2-401.461c0,.041.005.056.013.03a.191.191,0,0,0,0-.076C6.2-401.521,6.2-401.5,6.2-401.461Z" transform="translate(-4.99 -525.334)"/>
      <g id="chrome" transform="translate(1.08 -940.499)">
        <path id="Path_60150" data-name="Path 60150" d="M45.98,14.6l4.683-8.11.87.015,1.421.055L57.7,8.2l3.56-1.713A11.9,11.9,0,0,0,40.66,5.46v.008l.36,6.088Z" transform="translate(-38.768)" fill="#8f8f8f"/>
        <path id="Path_60151" data-name="Path 60151" d="M7.212,126.737l-5.323-9.129h0a11.9,11.9,0,0,0,9.445,18.311l4.251-2.819,1-6.357Z" transform="translate(0 -112.14)" fill="#5c5c5c"/>
        <path id="Path_60152" data-name="Path 60152" d="M255.034,139.621h-10.6l4.683,8.11h0l-5.245,9.177h0c.185.009.372.013.559.013a11.9,11.9,0,0,0,10.6-17.3Z" transform="translate(-232.542 -133.134)" fill="#a0a0a0"/>
        <circle id="Ellipse_2028" data-name="Ellipse 2028" cx="5.407" cy="5.407" r="5.407" transform="translate(6.487 6.487)" fill="#f1f1f1"/>
        <circle id="Ellipse_2029" data-name="Ellipse 2029" cx="4.326" cy="4.326" r="4.326" transform="translate(7.569 7.569)" fill="#9f9f9f"/>
      </g>
    </g>
  </g>
</svg>
