<svg id="Character_2" data-name="Character 2" xmlns="http://www.w3.org/2000/svg" viewBox="0 0 252.31 360"><defs><style>.cls-1{fill:#f2f5fa;}.cls-2,.cls-3{fill:#c1c7d1;}.cls-3{opacity:0.44;}</style></defs><title>Movie thumnail</title><rect class="cls-1" width="252.31" height="360"/><path id="_06-Movie_Clapper" data-name="06-Movie Clapper" class="cls-2" d="M-5952.45,2543.27a6.8,6.8,0,0,0-2-2.5l44.51-32.78-5.15-7a2.29,2.29,0,0,0-3.2-.49l-48.42,35.66a2.29,2.29,0,0,0-.49,3.2l2.53,3.43a6.83,6.83,0,0,0-.54,5.45,6.85,6.85,0,0,0,5.18,4.61l9.93,30.73a2.29,2.29,0,0,0,2.88,1.47l57.22-18.49a2.29,2.29,0,0,0,1.47-2.88l-12-37.18Zm24.61-32.54,5.89-4.34,0.49,6.94-5.89,4.34Zm-14.56,10.72,5.89-4.34,0.49,6.94-5.89,4.34Zm-15.19,28a3.49,3.49,0,0,1-4.39-2.25,3.49,3.49,0,0,1,2.25-4.39,3.49,3.49,0,0,1,4.39,2.25A3.49,3.49,0,0,1-5957.6,2549.45Zm0.63-17.27,5.89-4.34,0.49,6.94-5.89,4.34Zm12.54,16.61-7,2.25,1.74-6.74,7-2.25Zm12-10,7-2.25-1.74,6.74-7,2.25Zm7,27.57-4.77-14.75,14.13,3.58Zm15.41-28.65-7,2.25,1.74-6.74,7-2.25Z" transform="translate(6051.37 -2365.24)"/><circle class="cls-2" cx="173.23" cy="177.4" r="4.44"/><circle class="cls-2" cx="161.84" cy="161.14" r="1.67"/><circle class="cls-3" cx="180.37" cy="151.82" r="9.33"/><circle class="cls-2" cx="-5984.33" cy="2557.96" r="4.44" transform="translate(2489.85 -5847.6) rotate(-45)"/><circle class="cls-2" cx="-5964.78" cy="2561.4" r="1.67" transform="translate(2493.15 -5832.77) rotate(-45)"/><circle class="cls-3" cx="-5971.29" cy="2581.1" r="9.33" transform="translate(2477.31 -5831.6) rotate(-45)"/></svg>