<svg xmlns="http://www.w3.org/2000/svg" width="97" height="30" viewBox="0 0 97 30">
  <g id="firestick" transform="translate(-1235 -2264)">
    <g id="Rectangle_10326" data-name="Rectangle 10326" transform="translate(1235 2264)" fill="#fff" stroke="#707070" stroke-width="1" opacity="0">
      <rect width="97" height="30" stroke="none"/>
      <rect x="0.5" y="0.5" width="96" height="29" fill="none"/>
    </g>
    <g id="Amazon_Fire_TV_Stick_logo" transform="translate(1237.254 2708.524)">
      <path id="Path_60153" data-name="Path 60153" d="M4.591-442.678a2.767,2.767,0,0,0-2.551,2.613,14.756,14.756,0,0,0-.068,1.51v1.035l-.6.074c-1.084.129-1.14.142-1.257.259-.092.092-.117.21-.117.548,0,.659.037.678,1.109.678H1.97v4.369c0,3.894.012,4.381.1,4.467s.253.1.943.1a2.574,2.574,0,0,0,.918-.074A42.347,42.347,0,0,0,4-431.566v-4.393H5.5c1.861,0,1.768.037,1.768-.758,0-.9.111-.844-1.738-.844H3.993l.018-1.251c.025-1.183.031-1.263.179-1.553a1.409,1.409,0,0,1,.357-.444A3.4,3.4,0,0,1,6.7-441c.659.1.69.068.69-.672,0-.462-.018-.536-.142-.659a4.768,4.768,0,0,0-2.657-.347Z" fill="#8e8e8e"/>
      <path id="Path_60154" data-name="Path 60154" d="M1352.1-437.782c-.086.092-.1.813-.1,7.616,0,7.431,0,7.511.123,7.635s.2.123.893.123c.739,0,.782-.006.924-.154l.154-.148v-4.671l.85.869c.462.481,1.522,1.571,2.342,2.422,1.2,1.245,1.547,1.571,1.725,1.621a8.247,8.247,0,0,0,1.99,0c.308-.166.209-.283-2.157-2.7-1.251-1.282-2.372-2.422-2.5-2.533a1.043,1.043,0,0,1-.222-.259c0-.018.974-1,2.169-2.187l2.311-2.3a.4.4,0,0,0,.129-.339l-.019-.191-.955-.018a4.728,4.728,0,0,0-1.121.055c-.092.037-1.152,1.066-2.36,2.28l-2.187,2.212V-433a43.063,43.063,0,0,0-.08-4.7c-.074-.154-.086-.154-.949-.173C1352.34-437.875,1352.18-437.862,1352.1-437.782Z" transform="translate(-1268.692 -4.556)" fill="#5c5c5c"/>
      <path id="Path_60155" data-name="Path 60155" d="M144.325-429.879a1.4,1.4,0,0,0-.592.561,1.792,1.792,0,0,0,.006,1.177,1.353,1.353,0,0,0,1.014.639,1.353,1.353,0,0,0,1.124-.417,1.255,1.255,0,0,0,.294-1.034,1.255,1.255,0,0,0-.614-.882,1.886,1.886,0,0,0-1.232-.044Z" transform="translate(-134.787 -11.973)" fill="#8e8e8e"/>
      <path id="Path_60156" data-name="Path 60156" d="M1135.65-429.918a1.145,1.145,0,0,0-.65,1.118c.006.857.5,1.294,1.417,1.239a1.083,1.083,0,0,0,.635-.173,1.3,1.3,0,0,0,.53-1.108,1.3,1.3,0,0,0-.63-1.055A2,2,0,0,0,1135.65-429.918Z" transform="translate(-1065.063 -11.922)" fill="#5c5c5c"/>
      <path id="Path_60157" data-name="Path 60157" d="M527.378-407.037c-.1.1-.123.209-.283,1.75-.062.622-.123,1.134-.136,1.146s-.394.062-.85.117c-1.084.136-1.109.154-1.109.77,0,.678.006.684,1.066.684h.844v3.247c0,3.358.025,3.753.259,4.381a2.408,2.408,0,0,0,1.251,1.239,6.082,6.082,0,0,0,3.21.037c.487-.142.524-.216.505-.93l-.018-.61-.37.012c-1.713.068-1.959.055-2.231-.1a.936.936,0,0,1-.4-.431c-.142-.283-.142-.3-.16-3.568l-.018-3.278h1.473c1.781,0,1.676.049,1.676-.813,0-.838.1-.789-1.682-.789h-1.46v-1.38c0-1.177-.012-1.4-.1-1.479a2.637,2.637,0,0,0-1.467-.005Z" transform="translate(-492.65 -33.392)" fill="#8e8e8e"/>
      <path id="Path_60158" data-name="Path 60158" d="M1001.34-407a7.539,7.539,0,0,0-.222,1.436c-.08.733-.16,1.368-.172,1.4a2.394,2.394,0,0,1-.721.142c-.857.092-1.14.16-1.189.29a3.288,3.288,0,0,0-.037.579c0,.419.018.5.117.555a4.994,4.994,0,0,0,.955.062h.838v3.371c0,3.648.012,3.814.339,4.455a1.911,1.911,0,0,0,.955.949,3.938,3.938,0,0,0,2.1.327c1.189-.062,1.731-.222,1.842-.555a2.975,2.975,0,0,0,.031-1.072c-.055-.2-.191-.216-.795-.111-1.356.234-2.113.006-2.317-.69a24.38,24.38,0,0,1-.086-3.469V-402.5l1.473-.018a7.931,7.931,0,0,0,1.559-.08c.055-.049.08-.259.08-.733s-.025-.684-.08-.733a7.933,7.933,0,0,0-1.559-.08l-1.473-.018-.018-1.38a7.14,7.14,0,0,0-.08-1.467A3.23,3.23,0,0,0,1001.34-407Z" transform="translate(-937.443 -33.424)" fill="#5c5c5c"/>
      <path id="Path_60159" data-name="Path 60159" d="M334.093-363.625a4.313,4.313,0,0,0-3.167,2.342,6.141,6.141,0,0,0-.635,2.865c-.08,2.237.511,3.913,1.713,4.874a5.206,5.206,0,0,0,1.738.82,9.048,9.048,0,0,0,3.574.006,5.62,5.62,0,0,0,1.614-.555c.154-.123.179-.185.2-.579.049-.875-.031-.937-.918-.678a7.294,7.294,0,0,1-2.613.351,3.774,3.774,0,0,1-1.349-.2c-1.232-.419-1.818-1.276-1.984-2.89l-.043-.413h3.4c3.709,0,3.525.018,3.629-.357a11.031,11.031,0,0,0,.049-1.368,4.625,4.625,0,0,0-.142-1.664,3.489,3.489,0,0,0-2.465-2.477,7.721,7.721,0,0,0-2.6-.077Zm1.793,1.534a2.023,2.023,0,0,1,1.115.7,2.415,2.415,0,0,1,.462,1.6l.025.758h-5.262l.043-.327c.234-1.836,1.2-2.8,2.8-2.81a4.039,4.039,0,0,1,.817.079Z" transform="translate(-309.932 -74.154)" fill="#8e8e8e"/>
      <path id="Path_60160" data-name="Path 60160" d="M869.983-363.779a3.4,3.4,0,0,0-2.471,1.688,2.882,2.882,0,0,0,.542,3.284,6.2,6.2,0,0,0,2.489,1.282c.752.283,1.485.592,1.633.672a1.12,1.12,0,0,1,.622.961c.068.93-.53,1.491-1.719,1.627a9.241,9.241,0,0,1-2.637-.29,8.946,8.946,0,0,0-.974-.216c-.345-.037-.407.086-.376.721s.117.727.869.974a7.128,7.128,0,0,0,2.693.4,4.592,4.592,0,0,0,2.378-.456,3.194,3.194,0,0,0,1.6-1.812,2.936,2.936,0,0,0-.641-2.878,7.006,7.006,0,0,0-2.366-1.22,7.159,7.159,0,0,1-2.077-.967,1.068,1.068,0,0,1-.37-.912c0-.659.339-1.041,1.109-1.239a6.729,6.729,0,0,1,2.791.154,8.274,8.274,0,0,0,.844.191c.185,0,.246-.191.246-.739,0-.444-.018-.518-.148-.647a4.6,4.6,0,0,0-1.682-.555,10.079,10.079,0,0,0-2.355-.023Z" transform="translate(-813.658 -74.025)" fill="#5c5c5c"/>
      <path id="Path_60161" data-name="Path 60161" d="M1204.3-362.692a5.181,5.181,0,0,0-1.639.5,3.342,3.342,0,0,0-1.048.789,5.178,5.178,0,0,0-1.46,3.82c-.135,3.26,1.165,5.268,3.74,5.755,1.5.29,3.857-.068,4.067-.61a2.238,2.238,0,0,0-.037-1.226c-.117-.123-.142-.123-.684.025a6.425,6.425,0,0,1-2.015.228,2.7,2.7,0,0,1-2.791-2.2,11.292,11.292,0,0,1,0-3.223,2.571,2.571,0,0,1,2.052-2.114,7.889,7.889,0,0,1,2.7.092,1.168,1.168,0,0,0,.6.068c.234-.129.234-1.226-.006-1.43a6.405,6.405,0,0,0-3.479-.474Z" transform="translate(-1126.193 -75.05)" fill="#5c5c5c"/>
      <path id="Path_60162" data-name="Path 60162" d="M229.4-359.823a4.008,4.008,0,0,0-1.886,1.128c-.481.456-.437.493-.542-.413-.092-.715-.123-.739-1-.739-.635,0-.672.006-.764.148-.086.123-.092.733-.08,5.207.018,4.424.031,5.071.111,5.121a6.1,6.1,0,0,0,1.836-.012,32.4,32.4,0,0,0,.074-3.882v-3.808l.265-.191a4.209,4.209,0,0,1,2.724-.807,4.669,4.669,0,0,0,.912-.055c.092-.055.1-.16.1-.857,0-.727-.012-.8-.117-.863a5.087,5.087,0,0,0-1.633.023Z" transform="translate(-211.25 -77.716)" fill="#8e8e8e"/>
      <path id="Path_60163" data-name="Path 60163" d="M147.364-359.008c-.111.086-.117.222-.129,5.1a51.214,51.214,0,0,0,.062,5.164c.08.154.08.154.967.154s.887,0,.967-.154a51.213,51.213,0,0,0,.062-5.164c-.012-4.88-.018-5.016-.129-5.1A4.425,4.425,0,0,0,147.364-359.008Z" transform="translate(-138.158 -78.47)" fill="#8e8e8e"/>
      <path id="Path_60164" data-name="Path 60164" d="M659.6-358.877c-.08.154-.123.031,2.144,5.718.98,2.452,1.824,4.51,1.879,4.578.092.1.191.117,1.017.117s.93-.012,1.023-.111c.055-.062.425-.943.832-1.96,2.224-5.62,3.081-7.782,3.155-7.992.142-.4.074-.444-.813-.462a8,8,0,0,0-.906.018c-.2.049-.333.364-1.393,3.389-1.849,5.275-1.849,5.275-1.9,5.182-.031-.049-.24-.641-.474-1.312-.98-2.816-2.36-6.723-2.452-6.938a.589.589,0,0,0-.253-.3,5.549,5.549,0,0,0-.967-.055C659.726-359,659.658-358.988,659.6-358.877Z" transform="translate(-618.928 -78.563)" fill="#8e8e8e"/>
      <path id="Path_60165" data-name="Path 60165" d="M1139.1-358.9c-.086.086-.1.641-.1,5.2v5.108l.135.092c.1.074.308.1.881.1s.776-.025.881-.1l.135-.092v-5.133c0-3.907-.018-5.145-.074-5.2a2.572,2.572,0,0,0-.918-.074C1139.35-359,1139.17-358.982,1139.1-358.9Z" transform="translate(-1068.816 -78.563)" fill="#5c5c5c"/>
      <path id="Path_60166" data-name="Path 60166" d="M612.666-144.652a11.03,11.03,0,0,0-1.781.376c-.912.283-1.885.869-1.885,1.128,0,.234.129.253.992.142a19.573,19.573,0,0,1,2.274-.1c1.584-.006,1.9.049,2.151.37.357.45.129,1.67-.709,3.863-.474,1.239-.5,1.343-.37,1.454.154.129.407-.012.887-.505a8.437,8.437,0,0,0,2.04-4.153,5.564,5.564,0,0,0,.068-1.959c-.074-.191-.437-.37-1.035-.5a15.966,15.966,0,0,0-2.632-.116Z" transform="translate(-571.474 -279.688)" fill="#8e8e8e"/>
      <path id="Path_60167" data-name="Path 60167" d="M85.074-131.849a.385.385,0,0,0-.074.24c0,.191.345.536,1.343,1.337a28.993,28.993,0,0,0,15.614,6.334,37.55,37.55,0,0,0,5.256.031,30.246,30.246,0,0,0,10.506-2.9,17.385,17.385,0,0,0,3.3-2.046.524.524,0,0,0,.139-.6.524.524,0,0,0-.527-.318,4.506,4.506,0,0,0-1,.314,41.484,41.484,0,0,1-6.162,1.892,38.38,38.38,0,0,1-15.744.191,39.482,39.482,0,0,1-11.621-4.19C85.45-131.923,85.216-131.991,85.074-131.849Z" transform="translate(-79.762 -291.653)" fill="#8e8e8e"/>
    </g>
  </g>
</svg>
