<svg xmlns="http://www.w3.org/2000/svg" xmlns:xlink="http://www.w3.org/1999/xlink" width="253" height="200" viewBox="0 0 253 200">
  <defs>
    <clipPath id="clip-Artboard_4">
      <rect width="253" height="200"/>
    </clipPath>
  </defs>
  <g id="Artboard_4" data-name="Artboard – 4" clip-path="url(#clip-Artboard_4)">
    <g id="close" transform="translate(-8451.461 -4228.638)">
      <rect id="Rectangle_9943" data-name="Rectangle 9943" width="14" height="14" transform="translate(8635 4288.524)" fill="none" stroke="#000" stroke-width="1" opacity="0"/>
      <g id="close_2_" data-name="close (2)" transform="translate(8635.271 4289.27)">
        <path id="Path_17330" data-name="Path 17330" d="M.719,13.014a.668.668,0,0,1-.472-1.14L11.894.226a.668.668,0,0,1,.945.945L1.192,12.818a.666.666,0,0,1-.473.2Zm0,0" transform="translate(-0.051 -0.03)" stroke="#000" stroke-width="1"/>
        <path id="Path_17331" data-name="Path 17331" d="M12.366,12.984a.662.662,0,0,1-.472-.2L.246,1.141A.668.668,0,1,1,1.191.2L12.838,11.844a.668.668,0,0,1-.472,1.139Zm0,0" transform="translate(-0.05 0)" stroke="#000" stroke-width="1"/>
      </g>
    </g>
    <g id="backward" transform="translate(126.734 1.082)">
      <g id="next" transform="translate(12.507 11.365)">
        <g id="Group_32395" data-name="Group 32395" transform="translate(0)">
          <g id="Group_32394" data-name="Group 32394">
            <path id="Path_17332" data-name="Path 17332" d="M15.186,8.191,4.017.509A2.462,2.462,0,0,0,2.673.025c-.9,0-1.492.753-1.492,1.964V18.142a2.4,2.4,0,0,0,.428,1.43,1.348,1.348,0,0,0,1.1.533,2.411,2.411,0,0,0,1.326-.483l11.157-7.683a2.3,2.3,0,0,0,1.113-1.875A2.3,2.3,0,0,0,15.186,8.191Z" transform="translate(-1.18 -0.025)" fill="#fff"/>
          </g>
        </g>
      </g>
    </g>
    <g id="back" transform="translate(171.684 7.029)">
      <path id="Path_15757" data-name="Path 15757" d="M337.266,556.253h13.121m0,0-5.253,5.253m5.253-5.253L345.133,551" transform="translate(-325.433 -540.493)" fill="none" stroke="#808191" stroke-linecap="round" stroke-linejoin="round" stroke-width="2"/>
    </g>
    <g id="Search_inactive" data-name="Search inactive" transform="translate(-9.461 -1180.114)">
      <path id="Path_12120" data-name="Path 12120" d="M0,0H21.316V21.316H0Z" transform="translate(108 1348)" fill="none"/>
      <path id="Search" d="M3.812,10.154A6.342,6.342,0,1,1,10.153,16.5a6.342,6.342,0,0,1-6.342-6.342ZM10.153,2a8.154,8.154,0,1,0,5.089,14.524l3.331,3.329a.906.906,0,0,0,1.279-1.279l-3.329-3.331A8.154,8.154,0,0,0,10.153,2Z" transform="translate(107.599 1347.599)" fill-rule="evenodd"/>
    </g>
    <g id="Search_inactive-2" data-name="Search inactive" transform="translate(34.539 -1180.114)">
      <path id="Path_12120-2" data-name="Path 12120" d="M0,0H21.316V21.316H0Z" transform="translate(108 1348)" fill="none"/>
      <path id="Search-2" data-name="Search" d="M3.812,10.154A6.342,6.342,0,1,1,10.153,16.5a6.342,6.342,0,0,1-6.342-6.342ZM10.153,2a8.154,8.154,0,1,0,5.089,14.524l3.331,3.329a.906.906,0,0,0,1.279-1.279l-3.329-3.331A8.154,8.154,0,0,0,10.153,2Z" transform="translate(107.599 1347.599)" fill="#ff1d45" fill-rule="evenodd"/>
    </g>
    <g id="like_2" data-name="like 2" transform="translate(1220.539 3712.521)">
      <rect id="Rectangle_9926" data-name="Rectangle 9926" width="22" height="22" transform="translate(-1086 -3656.634)" fill="none" opacity="0"/>
      <path id="heart" d="M57.3,78.382a5.252,5.252,0,0,0-6.63-1.878A6.8,6.8,0,0,0,48,78.868,6.762,6.762,0,0,0,45.34,76.5a5.252,5.252,0,0,0-6.63,1.878,7.115,7.115,0,0,0-1.21,4.1c0,2.229,1.217,4.676,3.616,7.274a35.767,35.767,0,0,0,5.468,4.692,2.447,2.447,0,0,0,2.84,0,35.813,35.813,0,0,0,5.468-4.693c2.4-2.6,3.616-5.043,3.616-7.274A7.115,7.115,0,0,0,57.3,78.382Z" transform="translate(-1122.822 -3731.268)" fill="#9e9e9e"/>
    </g>
    <g id="Group_32631" data-name="Group 32631" transform="translate(-0.461 0.886)">
      <path id="Path_17407" data-name="Path 17407" d="M9.624,3.755a2.162,2.162,0,0,1,1.35.035,2.934,2.934,0,0,1,1.41,1.392,7.851,7.851,0,0,1,.709,2.093,23.927,23.927,0,0,1,.39,4.657,23.986,23.986,0,0,1-.39,4.661,7.869,7.869,0,0,1-.709,2.1,2.934,2.934,0,0,1-1.411,1.395l-.011,0h0a2.269,2.269,0,0,1-1.359.029,5.9,5.9,0,0,1-1.439-.6,13.621,13.621,0,0,1-2.787-2.151H4.257a3.87,3.87,0,0,1-2.869-1.315A4.745,4.745,0,0,1,.2,12.877V10.987A4.744,4.744,0,0,1,1.388,7.811,3.87,3.87,0,0,1,4.257,6.5H5.384A14.758,14.758,0,0,1,8.195,4.357a5.958,5.958,0,0,1,1.429-.6ZM8.775,5.622A13.766,13.766,0,0,0,6.048,7.736a.607.607,0,0,1-.424.178H4.257a2.648,2.648,0,0,0-1.963.9,3.246,3.246,0,0,0-.813,2.172v1.891a3.246,3.246,0,0,0,.813,2.172,2.648,2.648,0,0,0,1.963.9H5.624a.608.608,0,0,1,.434.187,12.577,12.577,0,0,0,2.684,2.117,4.719,4.719,0,0,0,1.138.48,1.164,1.164,0,0,0,.653.019,1.63,1.63,0,0,0,.751-.789,6.4,6.4,0,0,0,.562-1.689,22.479,22.479,0,0,0,.357-4.343,22.418,22.418,0,0,0-.357-4.338,6.378,6.378,0,0,0-.561-1.685,1.623,1.623,0,0,0-.757-.79h0a1.052,1.052,0,0,0-.619.02,4.781,4.781,0,0,0-1.132.483Z" transform="translate(19.542 13.335)" fill="#ff1d45" fill-rule="evenodd"/>
      <path id="Path_17408" data-name="Path 17408" d="M18.022,8.362a.794.794,0,0,1,1.122,0,6.084,6.084,0,0,1,0,8.6.794.794,0,1,1-1.122-1.122,4.5,4.5,0,0,0,0-6.359.794.794,0,0,1,0-1.122Z" transform="translate(17.47 11.87)" fill="#ff1d45" fill-rule="evenodd"/>
      <path id="Path_17409" data-name="Path 17409" d="M18.02,8.438a.66.66,0,0,1,1.117,0,9.591,9.591,0,0,1,1.772,5.7,9.592,9.592,0,0,1-1.772,5.7.66.66,0,0,1-1.117,0,1.312,1.312,0,0,1,0-1.488,7.09,7.09,0,0,0,1.31-4.215,7.09,7.09,0,0,0-1.31-4.215,1.312,1.312,0,0,1,0-1.488Z" transform="translate(22.091 10.87)" fill="#ff1d45" fill-rule="evenodd"/>
    </g>
    <g id="Group_32630" data-name="Group 32630" transform="translate(-0.461 0.886)">
      <path id="Path_60098" data-name="Path 60098" d="M9.624,3.755a2.162,2.162,0,0,1,1.35.035,2.934,2.934,0,0,1,1.41,1.392,7.851,7.851,0,0,1,.709,2.093,23.927,23.927,0,0,1,.39,4.657,23.986,23.986,0,0,1-.39,4.661,7.869,7.869,0,0,1-.709,2.1,2.934,2.934,0,0,1-1.411,1.395l-.011,0h0a2.269,2.269,0,0,1-1.359.029,5.9,5.9,0,0,1-1.439-.6,13.621,13.621,0,0,1-2.787-2.151H4.257a3.87,3.87,0,0,1-2.869-1.315A4.745,4.745,0,0,1,.2,12.877V10.987A4.744,4.744,0,0,1,1.388,7.811,3.87,3.87,0,0,1,4.257,6.5H5.384A14.758,14.758,0,0,1,8.195,4.357a5.958,5.958,0,0,1,1.429-.6ZM8.775,5.622A13.766,13.766,0,0,0,6.048,7.736a.607.607,0,0,1-.424.178H4.257a2.648,2.648,0,0,0-1.963.9,3.246,3.246,0,0,0-.813,2.172v1.891a3.246,3.246,0,0,0,.813,2.172,2.648,2.648,0,0,0,1.963.9H5.624a.608.608,0,0,1,.434.187,12.577,12.577,0,0,0,2.684,2.117,4.719,4.719,0,0,0,1.138.48,1.164,1.164,0,0,0,.653.019,1.63,1.63,0,0,0,.751-.789,6.4,6.4,0,0,0,.562-1.689,22.479,22.479,0,0,0,.357-4.343,22.418,22.418,0,0,0-.357-4.338,6.378,6.378,0,0,0-.561-1.685,1.623,1.623,0,0,0-.757-.79h0a1.052,1.052,0,0,0-.619.02,4.781,4.781,0,0,0-1.132.483Z" transform="translate(82.542 13.335)" fill="#fff" fill-rule="evenodd"/>
      <path id="Path_60097" data-name="Path 60097" d="M18.022,8.362a.794.794,0,0,1,1.122,0,6.084,6.084,0,0,1,0,8.6.794.794,0,1,1-1.122-1.122,4.5,4.5,0,0,0,0-6.359.794.794,0,0,1,0-1.122Z" transform="translate(80.47 11.87)" fill="#fff" fill-rule="evenodd"/>
      <path id="Path_60096" data-name="Path 60096" d="M18.02,8.438a.66.66,0,0,1,1.117,0,9.591,9.591,0,0,1,1.772,5.7,9.592,9.592,0,0,1-1.772,5.7.66.66,0,0,1-1.117,0,1.312,1.312,0,0,1,0-1.488,7.09,7.09,0,0,0,1.31-4.215,7.09,7.09,0,0,0-1.31-4.215,1.312,1.312,0,0,1,0-1.488Z" transform="translate(85.091 10.87)" fill="#fff" fill-rule="evenodd"/>
    </g>
    <path id="share_5_" data-name="share (5)" d="M64.14,35.912a3.511,3.511,0,1,0-3.077-1.824l-6.074,3.167a3.508,3.508,0,1,0-.048,4.369l5.979,3.108a3.523,3.523,0,1,0,.471-.785l-5.968-3.1a3.5,3.5,0,0,0,.032-2.8l6.158-3.211a3.5,3.5,0,0,0,2.528,1.08Z" transform="translate(174.23 -17.889)"/>
    <g id="Group_32633" data-name="Group 32633" transform="translate(-0.461 0.886)">
      <g id="Group_32632" data-name="Group 32632" transform="translate(-63 56)">
        <path id="Path_60098-2" data-name="Path 60098" d="M9.624,3.755a2.162,2.162,0,0,1,1.35.035,2.934,2.934,0,0,1,1.41,1.392,7.851,7.851,0,0,1,.709,2.093,23.927,23.927,0,0,1,.39,4.657,23.986,23.986,0,0,1-.39,4.661,7.869,7.869,0,0,1-.709,2.1,2.934,2.934,0,0,1-1.411,1.395l-.011,0h0a2.269,2.269,0,0,1-1.359.029,5.9,5.9,0,0,1-1.439-.6,13.621,13.621,0,0,1-2.787-2.151H4.257a3.87,3.87,0,0,1-2.869-1.315A4.745,4.745,0,0,1,.2,12.877V10.987A4.744,4.744,0,0,1,1.388,7.811,3.87,3.87,0,0,1,4.257,6.5H5.384A14.758,14.758,0,0,1,8.195,4.357a5.958,5.958,0,0,1,1.429-.6ZM8.775,5.622A13.766,13.766,0,0,0,6.048,7.736a.607.607,0,0,1-.424.178H4.257a2.648,2.648,0,0,0-1.963.9,3.246,3.246,0,0,0-.813,2.172v1.891a3.246,3.246,0,0,0,.813,2.172,2.648,2.648,0,0,0,1.963.9H5.624a.608.608,0,0,1,.434.187,12.577,12.577,0,0,0,2.684,2.117,4.719,4.719,0,0,0,1.138.48,1.164,1.164,0,0,0,.653.019,1.63,1.63,0,0,0,.751-.789,6.4,6.4,0,0,0,.562-1.689,22.479,22.479,0,0,0,.357-4.343,22.418,22.418,0,0,0-.357-4.338,6.378,6.378,0,0,0-.561-1.685,1.623,1.623,0,0,0-.757-.79h0a1.052,1.052,0,0,0-.619.02,4.781,4.781,0,0,0-1.132.483Z" transform="translate(82.542 13.335)" fill="#fff" fill-rule="evenodd"/>
      </g>
      <g id="close_2_2" data-name="close (2)" transform="translate(36.381 77.996)">
        <path id="Path_17330-2" data-name="Path 17330" d="M.388,6.57a.337.337,0,0,1-.238-.575L6.025.119A.337.337,0,0,1,6.5.6L.626,6.471a.336.336,0,0,1-.239.1Zm0,0" transform="translate(-0.051 -0.02)" fill="#fff" stroke="#fff" stroke-width="0.5"/>
        <path id="Path_17331-2" data-name="Path 17331" d="M6.264,6.55a.334.334,0,0,1-.238-.1L.15.576A.337.337,0,1,1,.626.1L6.5,5.975a.337.337,0,0,1-.238.575Zm0,0" transform="translate(-0.051 0)" fill="#fff" stroke="#fff" stroke-width="0.5"/>
      </g>
    </g>
    <g id="Group_32527" data-name="Group 32527" transform="translate(-7245.42 34.939)">
      <g id="plus_1_" data-name="plus (1)" transform="translate(7347.059 92.059)">
        <g id="Group_32458" data-name="Group 32458">
          <path id="Path_17363" data-name="Path 17363" d="M8.887,6.915V0H6.915V6.915H0V8.887H6.915V15.8H8.887V8.887H15.8V6.915Z"/>
        </g>
      </g>
    </g>
    <g id="Group_31859" data-name="Group 31859" transform="translate(-4133.727 -22457.127)">
      <path id="Path_16674" data-name="Path 16674" d="M43.2,733.324l.305-3.524a1.2,1.2,0,0,1,1.224-1.158h3.91a1.2,1.2,0,0,1,1.232,1.158l.305,3.532a1.026,1.026,0,0,0,1.033.995h.633a2.9,2.9,0,0,0,2.984-2.806V724.4A1.962,1.962,0,0,0,54,722.843l-5.654-4.284a2.848,2.848,0,0,0-3.39,0l-5.629,4.292a1.943,1.943,0,0,0-.827,1.554v7.115a2.9,2.9,0,0,0,2.984,2.806h.633a1.036,1.036,0,0,0,1.066-1" transform="translate(4318.187 21870.688)" fill="none" stroke="#888" stroke-width="2"/>
    </g>
    <g id="Group_32634" data-name="Group 32634" transform="translate(-7453.461 -1095.858)">
      <rect id="Rectangle_9984" data-name="Rectangle 9984" width="15" height="15" transform="translate(7511 1223.744)" fill="none" opacity="0"/>
      <g id="_7-Check" data-name="7-Check" transform="translate(7511.138 1224.32)">
        <path id="Path_17379" data-name="Path 17379" d="M33.531,44.2a1.508,1.508,0,0,0-1.166,2.46L36.2,51.35a1.369,1.369,0,0,0,1.144.508,1.468,1.468,0,0,0,1.152-.683L46.45,38.36l0-.006a.413.413,0,0,0-.1-.485.423.423,0,0,0-.614.043l-.009.01L37.7,46.989a.348.348,0,0,1-.495.027l-2.664-2.424a1.5,1.5,0,0,0-1.013-.395Z" transform="translate(-32.027 -37.756)" fill="#333"/>
      </g>
    </g>
    <path id="menu_1_" data-name="menu (1)" d="M11.864,6.729A1.864,1.864,0,1,0,10,4.864,1.864,1.864,0,0,0,11.864,6.729Zm0,9.321a1.864,1.864,0,1,0,1.864,1.864A1.864,1.864,0,0,0,11.864,16.05Zm0-6.525a1.864,1.864,0,1,0,1.864,1.864A1.864,1.864,0,0,0,11.864,9.525Z" transform="translate(53.813 167.886)" fill="#fff"/>
    <g id="Group_32654" data-name="Group 32654" transform="translate(-6816 -1460.689)">
      <path id="Show" d="M11.9,38.873C4.114,38.873.254,32.086.094,31.8a.743.743,0,0,1,0-.723C.254,30.786,4.114,24,11.9,24s11.644,6.786,11.8,7.075a.744.744,0,0,1,0,.723C23.542,32.086,19.683,38.873,11.9,38.873ZM1.619,31.435c.885,1.341,4.358,5.95,10.28,5.95,5.941,0,9.4-4.606,10.28-5.948-.885-1.341-4.358-5.95-10.28-5.95C5.957,25.487,2.5,30.093,1.619,31.435Zm10.28,5.95a12.125,12.125,0,0,1-4.689-.531C4.277,35.757.953,33.076.953,31.435c0-1.577,3.518-4.6,6.979-5.948,1.456-.571,3.084,0,3.967,0a12.472,12.472,0,0,1,4.2.371c2.887,1.026,6.08,3.79,6.08,5.579,0,1.481-2.982,4.042-6.08,5.417A9.768,9.768,0,0,1,11.9,37.386Zm0-8.924a2.975,2.975,0,1,0,2.975,2.975A2.978,2.978,0,0,0,11.9,28.462Z" transform="translate(6826 1564)" fill="#9e9e9e"/>
    </g>
    <g id="Line" transform="translate(9.076 167.941)">
      <path id="Path_60095" data-name="Path 60095" d="M12.817,2A6.161,6.161,0,0,0,6.656,8.161v4.805L5.293,15.02a1.676,1.676,0,0,0,1.392,2.587h3.668a2.464,2.464,0,1,0,4.929,0h3.668a1.676,1.676,0,0,0,1.392-2.6l-1.364-2.041V8.161A6.161,6.161,0,0,0,12.817,2Zm0,17.25a1.643,1.643,0,0,1-1.643-1.643H14.46A1.643,1.643,0,0,1,12.817,19.25Zm6.838-3.787a.821.821,0,0,1,.144.472.85.85,0,0,1-.85.85H6.685a.85.85,0,0,1-.85-.85.821.821,0,0,1,.144-.472l1.429-2.148a.411.411,0,0,0,.07-.226V8.161a5.339,5.339,0,1,1,10.678,0v4.929a.411.411,0,0,0,.07.226Z" fill="#ff1d45" stroke="#ff1d45" stroke-width="1"/>
    </g>
    <path id="Path_60104" data-name="Path 60104" d="M347.238,554.771H332m0,0,3.771,3.771M332,554.771,335.771,551" transform="translate(-257.338 -476.384)" fill="none" stroke="#000" stroke-linecap="round" stroke-linejoin="round" stroke-width="2"/>
    <g id="house-outline" transform="translate(222.539 28.737)">
      <path id="Path_60091" data-name="Path 60091" d="M19.509,32.407l-9.171-7.5a.808.808,0,0,0-1.023,0l-9.171,7.5a.39.39,0,0,0,.493.6L2.6,31.405v9.775a.389.389,0,0,0,.389.389H16.664a.39.39,0,0,0,.39-.389V31.405l1.963,1.605a.39.39,0,0,0,.493-.6Zm-3.235,8.384H3.378V30.769l6.115-5a.526.526,0,0,1,.667,0l6.115,5Z" transform="translate(0)" fill="#fff" stroke="#fff" stroke-width="1"/>
    </g>
    <g id="padlock" transform="translate(269.496 87.913)">
      <g id="Group_32626" data-name="Group 32626" transform="translate(-51 2)">
        <rect id="Rectangle_10319" data-name="Rectangle 10319" width="13" height="11" transform="translate(6.035 8.973)" fill="#fff"/>
        <path id="Path_60092" data-name="Path 60092" d="M12.48,1A5.587,5.587,0,0,0,6.87,6.61V8.1A1.837,1.837,0,0,0,5,9.973v9.1a1.837,1.837,0,0,0,1.87,1.87H18.09a1.837,1.837,0,0,0,1.87-1.87v-9.1A1.837,1.837,0,0,0,18.09,8.1V6.61A5.587,5.587,0,0,0,12.48,1Zm6.233,8.973v9.1a.589.589,0,0,1-.623.623H6.87a.589.589,0,0,1-.623-.623v-9.1A.589.589,0,0,1,6.87,9.35H18.09A.589.589,0,0,1,18.713,9.973ZM8.117,8.1V6.61a4.363,4.363,0,1,1,8.727,0V8.1Z" fill="#fff"/>
        <path id="Path_60093" data-name="Path 60093" d="M15.87,19A1.837,1.837,0,0,0,14,20.87a1.816,1.816,0,0,0,1.247,1.745v1.371a.623.623,0,0,0,1.247,0V22.615A1.816,1.816,0,0,0,17.74,20.87,1.837,1.837,0,0,0,15.87,19Zm0,2.493a.623.623,0,1,1,.623-.623A.589.589,0,0,1,15.87,21.493Z" transform="translate(-3.389 -6.78)" fill="#eee"/>
        <path id="Path_60094" data-name="Path 60094" d="M12.48,1A5.587,5.587,0,0,0,6.87,6.61V8.1H18.09V6.61A5.587,5.587,0,0,0,12.48,1ZM8.117,8.1V6.61a4.363,4.363,0,1,1,8.727,0V8.1Z" fill="#a2a2a2"/>
      </g>
    </g>
    <g id="Line-2" data-name="Line" transform="translate(177.719 98.886)">
      <path id="Path_60095-2" data-name="Path 60095" d="M12.817,2A6.161,6.161,0,0,0,6.656,8.161v4.805L5.293,15.02a1.676,1.676,0,0,0,1.392,2.587h3.668a2.464,2.464,0,1,0,4.929,0h3.668a1.676,1.676,0,0,0,1.392-2.6l-1.364-2.041V8.161A6.161,6.161,0,0,0,12.817,2Zm0,17.25a1.643,1.643,0,0,1-1.643-1.643H14.46A1.643,1.643,0,0,1,12.817,19.25Zm6.838-3.787a.821.821,0,0,1,.144.472.85.85,0,0,1-.85.85H6.685a.85.85,0,0,1-.85-.85.821.821,0,0,1,.144-.472l1.429-2.148a.411.411,0,0,0,.07-.226V8.161a5.339,5.339,0,1,1,10.678,0v4.929a.411.411,0,0,0,.07.226Z" stroke="#000" stroke-width="1"/>
    </g>
  </g>
</svg>
