<svg xmlns="http://www.w3.org/2000/svg" width="56" height="30" viewBox="0 0 56 30">
  <g id="iostv" transform="translate(-1158 -2264)">
    <g id="Rectangle_10327" data-name="Rectangle 10327" transform="translate(1158 2264)" fill="#fff" stroke="#707070" stroke-width="1" opacity="0">
      <rect width="56" height="30" stroke="none"/>
      <rect x="0.5" y="0.5" width="55" height="29" fill="none"/>
    </g>
    <g id="Apple_TV" data-name="Apple TV" transform="translate(1062.75 1948.947)">
      <path id="Path_60208" data-name="Path 60208" d="M113.558,321.2a5.276,5.276,0,0,0,1.2-3.751,5.156,5.156,0,0,0-3.434,1.793,4.955,4.955,0,0,0-1.231,3.6,4.293,4.293,0,0,0,3.461-1.642m1.122,1.889c-1.915-.111-3.529,1.094-4.446,1.094s-2.312-1.034-3.817-1.007a5.632,5.632,0,0,0-4.788,2.937c-2.052,3.557-.547,8.855,1.45,11.751.971,1.376,2.134,3.016,3.68,2.963s2.025-.958,3.789-.958,2.284.958,3.817.923,2.6-1.379,3.557-2.873a12.747,12.747,0,0,0,1.6-3.31,5.217,5.217,0,0,1-3.105-4.744,5.335,5.335,0,0,1,2.5-4.454,5.459,5.459,0,0,0-4.241-2.326m12.216-2.758v3.9h3.119v2.579H126.9v9.241c0,1.379.616,2.082,1.984,2.082a10.258,10.258,0,0,0,1.122-.082v2.6a10.7,10.7,0,0,1-1.847.137c-3.228,0-4.473-1.254-4.473-4.4v-9.515h-2.449v-2.585h2.38v-3.957Zm14.022,20.318H137.5l-5.745-16.358h3.406L139.2,337.43h.082l4.036-13.143h3.338l-1.915,5.466Z" fill="#333"/>
    </g>
  </g>
</svg>
