<svg xmlns="http://www.w3.org/2000/svg" xmlns:xlink="http://www.w3.org/1999/xlink" width="200" height="153" viewBox="0 0 200 153"><defs><style>.a{fill:#fff;stroke:#707070;}.b{clip-path:url(#a);}.c{fill:url(#b);}.d,.e,.f,.g,.h{fill:none;}.e,.h{stroke:#e4b631;}.e,.f,.g,.h{stroke-linecap:round;stroke-linejoin:round;stroke-width:3px;}.f,.g{stroke:#6d6e7c;}.g,.h{fill-rule:evenodd;}</style><clipPath id="a"><rect class="a" width="200" height="153" transform="translate(97 295)"/></clipPath><linearGradient id="b" x1="0.548" y1="0.539" x2="0.523" y2="-0.58" gradientUnits="objectBoundingBox"><stop offset="0" stop-color="#fff"/><stop offset="1" stop-color="#d7d7d8"/></linearGradient></defs><g class="b" transform="translate(-97 -295)"><ellipse class="c" cx="96.731" cy="96.731" rx="96.731" ry="96.731" transform="translate(100.857 298.311)"/><g transform="translate(163.242 357.634)"><path class="d" d="M0,0H67.112V67.112H0Z" transform="translate(0 0)"/><g transform="translate(8.389 8.389)"><path class="e" d="M16.02,22.758a9.219,9.219,0,1,0,0-18.439" transform="translate(21.086 -1.328)"/><path class="f" d="M17.536,14.5a30.479,30.479,0,0,1,4.522.652c2.066.411,4.555,1.258,5.439,3.112a4.386,4.386,0,0,1,0,3.761c-.881,1.854-3.372,2.7-5.439,3.126" transform="translate(23.81 16.953)"/><path class="g" d="M21.88,15.206c10.318,0,19.133,1.563,19.133,7.807s-8.758,7.863-19.133,7.863c-10.318,0-19.13-1.56-19.13-7.807S11.506,15.206,21.88,15.206Z" transform="translate(-2.75 18.228)"/><path class="h" d="M17.467,27.771A12.261,12.261,0,1,1,29.728,15.509,12.216,12.216,0,0,1,17.467,27.771Z" transform="translate(1.663 -3.25)"/></g></g></g></svg>