<svg xmlns="http://www.w3.org/2000/svg" xmlns:xlink="http://www.w3.org/1999/xlink" width="200" height="153" viewBox="0 0 200 153"><defs><style>.a{fill:#fff;stroke:#707070;}.b{clip-path:url(#a);}.c{fill:url(#b);}.d,.e,.f,.g,.h{fill:none;}.e,.h{stroke:#e4b631;}.e,.f,.g,.h{stroke-linecap:round;stroke-linejoin:round;stroke-width:3px;}.f,.g{stroke:#808191;}.g,.h{fill-rule:evenodd;}</style><clipPath id="a"><rect class="a" width="200" height="153" transform="translate(97 295)"/></clipPath><linearGradient id="b" x1="0.548" y1="0.539" x2="0.523" y2="-0.58" gradientUnits="objectBoundingBox"><stop offset="0" stop-color="#111217"/><stop offset="1" stop-color="#606064"/></linearGradient></defs><g class="b" transform="translate(-97 -295)"><ellipse class="c" cx="96.714" cy="96.713" rx="96.714" ry="96.713" transform="translate(100.856 298.311)"/><g transform="translate(163.229 357.623)"><path class="d" d="M0,0H67.1V67.1H0Z" transform="translate(0 0)"/><g transform="translate(8.387 8.387)"><path class="e" d="M16.02,22.755a9.218,9.218,0,1,0,0-18.436" transform="translate(21.08 -1.329)"/><path class="f" d="M17.536,14.5a30.473,30.473,0,0,1,4.521.651c2.066.411,4.554,1.258,5.438,3.112a4.385,4.385,0,0,1,0,3.76c-.881,1.854-3.372,2.7-5.438,3.126" transform="translate(23.802 16.947)"/><path class="g" d="M21.877,15.206c10.317,0,19.129,1.563,19.129,7.806s-8.757,7.862-19.129,7.862c-10.317,0-19.126-1.56-19.126-7.806S11.5,15.206,21.877,15.206Z" transform="translate(-2.75 18.222)"/><path class="h" d="M17.464,27.766a12.258,12.258,0,1,1,12.26-12.26A12.214,12.214,0,0,1,17.464,27.766Z" transform="translate(1.662 -3.25)"/></g></g></g></svg>