<svg xmlns="http://www.w3.org/2000/svg" xmlns:xlink="http://www.w3.org/1999/xlink" width="166" height="127" viewBox="0 0 166 127"><defs><style>.a{fill:#fff;stroke:#707070;}.b{clip-path:url(#a);}.c{fill:url(#b);}.d,.g,.h{fill:none;stroke:#fff;stroke-linecap:round;}.d{stroke-linejoin:round;stroke-width:3.5px;}.e{fill:#fed147;}.f{fill:url(#c);}.g{opacity:0.2;}.h{opacity:0.4;}</style><clipPath id="a"><rect class="a" width="166" height="127" transform="translate(97 295)"/></clipPath><linearGradient id="b" x1="0.548" y1="0.539" x2="0.523" y2="-0.58" gradientUnits="objectBoundingBox"><stop offset="0" stop-color="#111217"/><stop offset="1" stop-color="#606064"/></linearGradient><linearGradient id="c" x1="0.047" y1="1.017" x2="0.531" y2="0.534" gradientUnits="objectBoundingBox"><stop offset="0" stop-color="#808191"/><stop offset="1" stop-color="#404149"/></linearGradient></defs><g class="b" transform="translate(-97 -295)"><ellipse class="c" cx="80.45" cy="80.449" rx="80.45" ry="80.449" transform="translate(100.208 297.754)"/><path class="d" d="M234,629.892V626" transform="matrix(0.951, -0.309, 0.309, 0.951, -247.709, -190.115)"/><path class="e" d="M254.351,643h0a11.675,11.675,0,0,1-11.676,11.676h0A11.675,11.675,0,0,1,231,643h23.351Z" transform="matrix(0.951, -0.309, 0.309, 0.951, -241.387, -142.58)"/><path class="f" d="M285.663,675.271c.607,4.837.907,7.258.152,9.134a7.778,7.778,0,0,1-3.429,3.88c-1.767.985-4.2.985-9.08.985H239.253c-4.877,0-7.313,0-9.08-.985a7.778,7.778,0,0,1-3.429-3.88c-.755-1.876-.455-4.3.152-9.134l3.137-25.1a26.451,26.451,0,0,1,52.494,0Z" transform="matrix(0.951, -0.309, 0.309, 0.951, -268.005, -180.479)"/><path class="g" d="M-1771.024,8904.562s7.958-.549,12.367,9.009" transform="translate(1962.975 -8575.629)"/><path class="g" d="M-1758.656,8904.562s-7.958-.549-12.367,9.009" transform="matrix(0.899, -0.438, 0.438, 0.899, -2174.29, -8433.589)"/><path class="h" d="M-1771.024,8904.559a7.759,7.759,0,0,1,7,4.666" transform="translate(1962.975 -8570.398)"/><path class="h" d="M-1764.025,8904.559a7.759,7.759,0,0,0-7,4.666" transform="matrix(0.899, -0.438, 0.438, 0.899, -2167.173, -8431.241)"/></g></svg>