
<svg xmlns="http://www.w3.org/2000/svg" width="393.617" height="354.32" viewBox="0 0 393.617 354.32"><defs><style>.a{fill:#0069ff;opacity:0.47;}.b{fill:#dfecfd;}.c{fill:none;stroke:#1474ff;}.d{fill:#1474ff;}.e{font-size:28px;}</style></defs><g transform="translate(-633.865 -230.343)"><path class="a" d="M872.883,517.52a125.959,125.959,0,0,1-68.409-20.086l124.751-218.5a125.878,125.878,0,0,1-56.341,238.582Z" transform="translate(-8.375 14.363)"/><path class="a" d="M869.54,503.426a116.464,116.464,0,0,1-63.368-18.65l115.55-202.865A116.887,116.887,0,0,1,869.54,503.426Z" transform="translate(-5.291 19.763)"/><path class="a" d="M863.677,479.123a101.016,101.016,0,0,1-54.956-16.174L908.932,287.008a101.372,101.372,0,0,1-45.256,192.115Z" transform="translate(-0.661 28.76)"/><path class="a" d="M857.812,454.82a85.561,85.561,0,0,1-46.543-13.7L896.146,292.1A85.86,85.86,0,0,1,857.812,454.82Z" transform="translate(3.967 38.015)"/><path class="b" d="M880.1,587.3a173.7,173.7,0,0,1-34.717-3.494,171.173,171.173,0,0,1-49.943-18.673L856.879,456.96A10.75,10.75,0,1,0,867.5,438.266l5.182-9.122a16.532,16.532,0,0,0,7.421,1.732,16.708,16.708,0,0,0,9.069-30.765l5.267-9.278A10.748,10.748,0,1,0,905.02,372.2l60.36-106.269c3.754,2.139,7.466,4.442,11.029,6.846A171.943,171.943,0,0,1,880.1,587.3Zm.6-111.049A49.553,49.553,0,1,0,930.342,525.8,49.553,49.553,0,0,0,880.7,476.251Zm96.882-56.12a49.393,49.393,0,1,0,.006,0ZM900.41,435.649a10.784,10.784,0,1,0,.023,0ZM918.375,403.4a10.748,10.748,0,1,0,10.767,10.748h0A10.769,10.769,0,0,0,918.375,403.4Zm59.211-93.126a49.553,49.553,0,1,0,49.638,49.556v-.006a49.656,49.656,0,0,0-49.638-49.551Z" transform="translate(-24.788 -9.275)"/><path class="c" d="M992.688,256.672,789.628,610.494" transform="translate(-35.341 -26.08)"/><g transform="translate(-0.368)"><path class="d" d="M772.7,327.4l6.945,4.867a17.653,17.653,0,0,1-6.362,5.855,17.378,17.378,0,0,1-8.491,2.154,17.1,17.1,0,0,1-12.572-5.247,18.023,18.023,0,0,1-.026-25.347,17.073,17.073,0,0,1,12.6-5.247,17.748,17.748,0,0,1,14.9,8.01l-7.047,4.917a8.93,8.93,0,0,0-3.32-3.219,9.086,9.086,0,0,0-4.537-1.191,8.778,8.778,0,0,0-6.54,2.763,9.582,9.582,0,0,0,0,13.307,8.818,8.818,0,0,0,6.54,2.738,9.218,9.218,0,0,0,7.908-4.36Z" transform="translate(-112.765 60.435)"/><path class="d" d="M759.728,322.382a17.379,17.379,0,0,1,5.193-12.7,17.811,17.811,0,0,1,25.249,0,18.061,18.061,0,0,1,0,25.347,17.832,17.832,0,0,1-30.442-12.648Zm11.254-6.666a9.582,9.582,0,0,0,0,13.307,8.807,8.807,0,0,0,6.537,2.738,8.97,8.97,0,0,0,6.619-2.738,9.49,9.49,0,0,0-.028-13.307,8.943,8.943,0,0,0-6.59-2.763,8.767,8.767,0,0,0-6.538,2.763Z" transform="translate(-89.65 60.435)"/><path class="d" d="M794.869,325.839l9.683-21.241H811.7l4.256,34.928h-8.717l-2.132-18.808-7.046,14.752h-6.387l-7.1-14.752-2.18,18.808h-8.717l4.309-34.928h7.044Z" transform="translate(-64.312 60.73)"/><path class="d" d="M790.8,339.527V304.6h8.466v34.928Z" transform="translate(-33.219 60.73)"/><path class="d" d="M814.672,304.6h8.463v34.928h-7.4l-10.7-19.062v19.061h-8.466V304.6h7.655l10.443,18.808Z" transform="translate(-22.725 60.73)"/><path class="d" d="M839.709,310.621l-6.286,5.323a9.168,9.168,0,0,0-7.351-3.65,8.794,8.794,0,0,0-6.692,2.94,10.1,10.1,0,0,0-2.738,7.148,10.3,10.3,0,0,0,2.738,7.173,8.694,8.694,0,0,0,6.692,3.016q6.894,0,8.01-4.664H824.3v-6.793h19.01q0,9.632-4.661,14.4t-12.572,4.765a17.921,17.921,0,1,1,0-35.841,18.23,18.23,0,0,1,7.728,1.648,16.148,16.148,0,0,1,5.9,4.535Z" transform="translate(-1.833 60.435)"/></g><path class="d" d="M758.924,349.428h8.567a3.444,3.444,0,0,0,1.166,2.459,4.626,4.626,0,0,0,3.143.938,5.522,5.522,0,0,0,3.042-.811,2.607,2.607,0,0,0,1.267-2.332,2.437,2.437,0,0,0-.1-.76,3.007,3.007,0,0,0-.963-.963,8.164,8.164,0,0,0-2.433-1.166l-4.106-1.369a16.384,16.384,0,0,1-4.715-2.028,8.791,8.791,0,0,1-2.813-2.763,11.4,11.4,0,0,1-1.242-2.814,10.29,10.29,0,0,1-.355-2.687,9.714,9.714,0,0,1,3.447-7.731,12.969,12.969,0,0,1,8.77-2.966,12.719,12.719,0,0,1,8.669,2.915,10.039,10.039,0,0,1,3.346,7.984h-8.466q0-3.245-3.65-3.244a4.347,4.347,0,0,0-2.712.76,2.429,2.429,0,0,0-.989,2.028q0,1.876,3.245,2.839l4,1.267q9.683,3,9.683,10.646a9.335,9.335,0,0,1-2.078,6.159,11.09,11.09,0,0,1-4.867,3.5,17.772,17.772,0,0,1-5.982.989q-5.881,0-9.378-2.966A9.818,9.818,0,0,1,758.924,349.428Z" transform="translate(-91.11 96.661)"/><path class="d" d="M769.436,342.382a17.383,17.383,0,0,1,5.2-12.7,17.807,17.807,0,0,1,25.246,0,18.054,18.054,0,0,1,0,25.347,17.832,17.832,0,0,1-30.442-12.648Zm11.254-6.666a9.582,9.582,0,0,0,0,13.307,8.817,8.817,0,0,0,6.54,2.738,8.96,8.96,0,0,0,6.616-2.738,9.486,9.486,0,0,0-.025-13.307,8.943,8.943,0,0,0-6.59-2.763,8.778,8.778,0,0,0-6.54,2.763Z" transform="translate(-72.017 96.661)"/><path class="d" d="M783.458,342.382a17.383,17.383,0,0,1,5.2-12.7,17.808,17.808,0,0,1,25.246,0,18.054,18.054,0,0,1,0,25.347,17.832,17.832,0,0,1-30.442-12.648Zm11.254-6.666a9.582,9.582,0,0,0,0,13.307,8.818,8.818,0,0,0,6.54,2.738,8.959,8.959,0,0,0,6.616-2.738,9.486,9.486,0,0,0-.025-13.307,8.947,8.947,0,0,0-6.59-2.763,8.779,8.779,0,0,0-6.541,2.763Z" transform="translate(-46.548 96.661)"/><path class="d" d="M816.28,324.6h8.466v34.928h-7.4l-10.7-19.061v19.061H798.18V324.6h7.655l10.443,18.808Z" transform="translate(-19.804 96.956)"/><text class="e" transform="translate(693.865 338.59)"><tspan x="0" y="0">IMAGE</tspan></text></g></svg>