<svg xmlns="http://www.w3.org/2000/svg" xmlns:xlink="http://www.w3.org/1999/xlink" width="200" height="153" viewBox="0 0 200 153"><defs><style>.a{fill:#fff;stroke:#707070;}.b{clip-path:url(#a);}.c{fill:url(#b);}.d{fill-rule:evenodd;fill:url(#c);}.e{fill:#e4b631;}</style><clipPath id="a"><rect class="a" width="200" height="153" transform="translate(97 295)"/></clipPath><linearGradient id="b" x1="0.548" y1="0.539" x2="0.523" y2="-0.58" gradientUnits="objectBoundingBox"><stop offset="0" stop-color="#fff"/><stop offset="1" stop-color="#d7d7d8"/></linearGradient><linearGradient id="c" x1="0.289" y1="0.805" x2="0.91" y2="0.09" gradientUnits="objectBoundingBox"><stop offset="0" stop-color="#808191"/><stop offset="1" stop-color="#404149"/></linearGradient></defs><g class="b" transform="translate(-97 -295)"><ellipse class="c" cx="96.686" cy="96.685" rx="96.686" ry="96.685" transform="translate(100.855 298.31)"/><g transform="translate(161.21 368.401)"><path class="d" d="M24.78,3.25H48.8c3.611,0,6.472,0,8.779.188a16.138,16.138,0,0,1,6.177,1.523,15.705,15.705,0,0,1,6.863,6.863A16.142,16.142,0,0,1,72.144,18v0a2.492,2.492,0,0,1,.1,1.61c.089,1.995.089,4.353.089,7.165h0v10.8c0,3.611,0,6.472-.188,8.779a16.142,16.142,0,0,1-1.523,6.177A15.706,15.706,0,0,1,63.758,59.4a16.141,16.141,0,0,1-6.177,1.523c-2.306.188-5.168.188-8.779.188H24.78c-3.611,0-6.472,0-8.779-.188A16.141,16.141,0,0,1,9.825,59.4a15.705,15.705,0,0,1-6.863-6.863,16.139,16.139,0,0,1-1.523-6.177c-.188-2.306-.188-5.168-.188-8.779h0V26.78h0c0-2.812,0-5.17.089-7.165a2.492,2.492,0,0,1,.1-1.61v0a16.138,16.138,0,0,1,1.523-6.177A15.7,15.7,0,0,1,9.825,4.962,16.138,16.138,0,0,1,16,3.438c2.306-.188,5.168-.188,8.779-.188ZM66.2,14.076a8.485,8.485,0,0,1,.758,2.4H6.622a8.487,8.487,0,0,1,.759-2.4,10.745,10.745,0,0,1,4.7-4.7,11.334,11.334,0,0,1,4.329-1c2.081-.17,4.74-.172,8.484-.172h23.8c3.744,0,6.4,0,8.484.172a11.336,11.336,0,0,1,4.329,1A10.746,10.746,0,0,1,66.2,14.076ZM6.209,26.889c0-2.142,0-3.929.033-5.455h61.1c.032,1.527.033,3.313.033,5.455v10.58c0,3.744,0,6.4-.172,8.484a11.339,11.339,0,0,1-1,4.329,10.746,10.746,0,0,1-4.7,4.7,11.339,11.339,0,0,1-4.329,1c-2.081.17-4.74.172-8.484.172h-23.8c-3.744,0-6.4,0-8.484-.172a11.337,11.337,0,0,1-4.329-1,10.746,10.746,0,0,1-4.7-4.7,11.337,11.337,0,0,1-1-4.329c-.17-2.081-.172-4.74-.172-8.484Zm10.745,9.423a2.48,2.48,0,0,0,0,4.959h6.612a2.48,2.48,0,0,0,0-4.959Z" transform="translate(-1.25 -3.25)"/><ellipse class="e" cx="4.959" cy="4.959" rx="4.959" ry="4.959" transform="translate(42.153 30.583)"/><ellipse class="e" cx="4.959" cy="4.959" rx="4.959" ry="4.959" transform="translate(48.766 30.583)"/></g></g></svg>