<svg xmlns="http://www.w3.org/2000/svg" xmlns:xlink="http://www.w3.org/1999/xlink" width="200" height="153" viewBox="0 0 200 153"><defs><style>.a{fill:#fff;stroke:#707070;}.b{clip-path:url(#a);}.c{fill:url(#b);}.d{fill-rule:evenodd;fill:url(#c);}.e{fill:#e4b631;}</style><clipPath id="a"><rect class="a" width="200" height="153" transform="translate(97 295)"/></clipPath><linearGradient id="b" x1="0.548" y1="0.539" x2="0.523" y2="-0.58" gradientUnits="objectBoundingBox"><stop offset="0" stop-color="#111217"/><stop offset="1" stop-color="#606064"/></linearGradient><linearGradient id="c" x1="0.289" y1="0.805" x2="0.91" y2="0.09" gradientUnits="objectBoundingBox"><stop offset="0" stop-color="#808191"/><stop offset="1" stop-color="#404149"/></linearGradient></defs><g class="b" transform="translate(-97 -295)"><ellipse class="c" cx="96.741" cy="96.741" rx="96.741" ry="96.741" transform="translate(100.857 298.312)"/><g transform="translate(161.246 368.443)"><path class="d" d="M24.793,3.25H48.83c3.613,0,6.476,0,8.784.189a16.147,16.147,0,0,1,6.18,1.524A15.714,15.714,0,0,1,70.66,11.83a16.151,16.151,0,0,1,1.524,6.18v0a2.494,2.494,0,0,1,.1,1.611c.089,2,.089,4.355.089,7.169h0V37.6c0,3.613,0,6.476-.189,8.784a16.151,16.151,0,0,1-1.524,6.18,15.715,15.715,0,0,1-6.867,6.867,16.151,16.151,0,0,1-6.18,1.524c-2.308.189-5.171.189-8.784.189H24.793c-3.613,0-6.476,0-8.784-.189a16.15,16.15,0,0,1-6.18-1.524,15.714,15.714,0,0,1-6.867-6.867,16.148,16.148,0,0,1-1.524-6.18C1.25,44.074,1.25,41.211,1.25,37.6h0v-10.8h0c0-2.814,0-5.173.089-7.169a2.493,2.493,0,0,1,.1-1.611v0a16.147,16.147,0,0,1,1.524-6.18A15.713,15.713,0,0,1,9.83,4.963a16.147,16.147,0,0,1,6.18-1.524c2.308-.189,5.171-.189,8.784-.189ZM66.239,14.082a8.49,8.49,0,0,1,.759,2.4H6.625a8.492,8.492,0,0,1,.759-2.4,10.751,10.751,0,0,1,4.7-4.7,11.341,11.341,0,0,1,4.331-1c2.082-.17,4.743-.172,8.489-.172H48.72c3.746,0,6.407,0,8.489.172a11.342,11.342,0,0,1,4.332,1A10.752,10.752,0,0,1,66.239,14.082ZM6.212,26.9c0-2.143,0-3.931.033-5.458H67.378c.032,1.527.033,3.315.033,5.458V37.488c0,3.746,0,6.407-.172,8.489a11.345,11.345,0,0,1-1,4.332,10.752,10.752,0,0,1-4.7,4.7,11.345,11.345,0,0,1-4.332,1c-2.082.17-4.742.172-8.489.172H24.9c-3.746,0-6.407,0-8.489-.172a11.343,11.343,0,0,1-4.331-1,10.752,10.752,0,0,1-4.7-4.7,11.343,11.343,0,0,1-1-4.332c-.17-2.082-.172-4.742-.172-8.489Zm10.751,9.428a2.481,2.481,0,0,0,0,4.962h6.616a2.481,2.481,0,0,0,0-4.962Z" transform="translate(-1.25 -3.25)"/><ellipse class="e" cx="4.962" cy="4.962" rx="4.962" ry="4.962" transform="translate(42.177 30.6)"/><ellipse class="e" cx="4.962" cy="4.962" rx="4.962" ry="4.962" transform="translate(48.794 30.6)"/></g></g></svg>