<svg xmlns="http://www.w3.org/2000/svg" xmlns:xlink="http://www.w3.org/1999/xlink" width="200" height="162" viewBox="0 0 200 162"><defs><style>.a,.e,.k{fill:#fff;}.a{stroke:#707070;}.b{clip-path:url(#a);}.c{fill:url(#b);}.d{fill:url(#c);}.f{fill:#d5dae5;}.g{fill:#d5ddea;}.h{fill:#acb7c9;}.i{fill:url(#f);}.j{fill:#68aaff;}.k{stroke:#fff;}.l{filter:url(#d);}</style><clipPath id="a"><rect class="a" width="200" height="162"/></clipPath><linearGradient id="b" x1="0.519" y1="0.375" x2="0.523" y2="-0.58" gradientUnits="objectBoundingBox"><stop offset="0" stop-color="#fff"/><stop offset="1" stop-color="#d7d7d8"/></linearGradient><linearGradient id="c" x1="0.5" x2="0.5" y2="1" gradientUnits="objectBoundingBox"><stop offset="0" stop-color="#a5b2c9"/><stop offset="1" stop-color="#5d6c85"/></linearGradient><filter id="d" x="68.258" y="34.288" width="73.14" height="89.709" filterUnits="userSpaceOnUse"><feOffset dy="1" input="SourceAlpha"/><feGaussianBlur stdDeviation="3" result="e"/><feFlood flood-opacity="0.161"/><feComposite operator="in" in2="e"/><feComposite in="SourceGraphic"/></filter><linearGradient id="f" x1="0.5" x2="0.5" y2="1" gradientUnits="objectBoundingBox"><stop offset="0" stop-color="#ccdcf8"/><stop offset="1" stop-color="#8ea1bf"/></linearGradient></defs><g transform="translate(-97 -295)"><g class="b" transform="translate(97 295)"><path class="c" d="M97.056,0A97.055,97.055,0,1,1,0,97.055,97.055,97.055,0,0,1,97.056,0Z" transform="translate(3.87 3.322)"/></g><g transform="translate(155.133 337.288)"><rect class="d" width="78.436" height="50.508" rx="13" transform="translate(6.537 27.026)"/><g class="l" transform="matrix(1, 0, 0, 1, -58.13, -42.29)"><path class="e" d="M53.306,17.2,36.717.608A2.076,2.076,0,0,0,35.251,0H6.221A6.228,6.228,0,0,0,0,6.221V64.558a6.228,6.228,0,0,0,6.221,6.221H47.692a6.228,6.228,0,0,0,6.221-6.221v-45.9A2.093,2.093,0,0,0,53.306,17.2Z" transform="translate(78.49 42.29) rotate(1)"/></g><path class="f" d="M0,0,17.438,17.438H3.8a3.807,3.807,0,0,1-3.8-3.8Z" transform="translate(56.827 0.803) rotate(1)"/><rect class="g" width="26.058" height="1.849" rx="0.925" transform="translate(24.367 7.01)"/><rect class="g" width="31.674" height="1.849" rx="0.925" transform="translate(25.762 57.858)"/><rect class="g" width="15.162" height="1.849" rx="0.925" transform="translate(24.104 11.357)"/><rect class="g" width="17.144" height="1.849" rx="0.925" transform="translate(25.498 62.206)"/><rect class="g" width="41.821" height="28.438" rx="6" transform="translate(25.701 20.78)"/><path class="h" d="M5.8,2.774a2,2,0,0,1,3.408,0l3.929,6.4a2,2,0,0,1-1.7,3.047H3.576a2,2,0,0,1-1.7-3.047Z" transform="translate(53.033 25.523) rotate(91)"/><path class="i" d="M169.824,286.454h35.427c5.212,0,9.176-3.051,9.99-7.678a8.4,8.4,0,0,0,.081-1.649v-44c0-5.488-4.235-9.327-10.316-9.327-5.076,0-23.214.025-28.29,0a10.794,10.794,0,0,0-7.52,2.707c-1.52,1.353-3.095,2.658-4.615,4.036a2.349,2.349,0,0,1-1.792.64c-13.872-.025-14.71-.025-28.609,0-4.8,0-8.633,2.608-9.746,6.669a9.44,9.44,0,0,0-.326,2.461c-.027,13.165-.027,24.02,0,37.186,0,5.069,4.343,8.957,9.99,8.957Z" transform="translate(-124.089 -185.804)"/><circle class="j" cx="14.855" cy="14.855" r="14.855" transform="translate(31.791 77.533)"/><path class="k" d="M11.033,0H.849a.849.849,0,0,0,0,1.7H11.033a.849.849,0,0,0,0-1.7Z" transform="translate(45.736 98.327) rotate(-90)"/><path class="k" d="M11.033,0H.849a.849.849,0,0,0,0,1.7H11.033a.849.849,0,0,0,0-1.7Z" transform="translate(52.584 93.236) rotate(-180)"/></g></g></svg>