<svg xmlns="http://www.w3.org/2000/svg" xmlns:xlink="http://www.w3.org/1999/xlink" width="200" height="153" viewBox="0 0 200 153"><defs><style>.a{fill:url(#a);}.b{clip-path:url(#b);}.c{fill:#fff;}.d{opacity:0.6;fill:url(#d);}.e{fill:#cdcdd6;}.f{fill:#f6f6f6;}.g{fill:#f4be17;}.h,.i{stroke:none;}.i{fill:#b3bbc9;}</style><linearGradient id="a" x1="0.548" y1="0.539" x2="0.523" y2="-0.58" gradientUnits="objectBoundingBox"><stop offset="0" stop-color="#fff"/><stop offset="1" stop-color="#d7d7d8"/></linearGradient><clipPath id="b"><rect class="a" width="200" height="153" transform="translate(97 295)"/></clipPath><linearGradient id="d" x1="0.5" x2="0.5" y2="1" gradientUnits="objectBoundingBox"><stop offset="0" stop-color="#b9c6dc"/><stop offset="1" stop-color="#5d6c85"/></linearGradient></defs><g class="b" transform="translate(-97 -295)"><ellipse class="a" cx="96.78" cy="96.78" rx="96.78" ry="96.78" transform="translate(100.859 298.313)"/><g class="c" transform="translate(156.257 327.772) rotate(1)"><path class="h" d="M 74.94312286376953 110.719970703125 L 9.775178909301758 110.719970703125 C 4.660835742950439 110.719970703125 0.5000070929527283 106.5591278076172 0.5000070929527283 101.4447555541992 L 0.5000070929527283 9.775185585021973 C 0.5000070929527283 4.660828113555908 4.660835742950439 0.4999996423721313 9.775178909301758 0.4999996423721313 L 55.39273452758789 0.4999996423721313 C 56.11902236938477 0.4999996423721313 56.83002090454102 0.7945710420608521 57.34346389770508 1.308199644088745 L 83.41004943847656 27.37479972839355 C 83.92373657226563 27.8882999420166 84.21830749511719 28.59930038452148 84.21830749511719 29.32557106018066 L 84.21830749511719 101.4447555541992 C 84.21830749511719 106.5591278076172 80.05747985839844 110.719970703125 74.94312286376953 110.719970703125 Z"/><path class="i" d="M 9.775177001953125 1 C 4.936531066894531 1 0.9999923706054688 4.936538696289063 0.9999923706054688 9.775184631347656 L 0.9999923706054688 101.4447555541992 C 0.9999923706054688 106.2834320068359 4.936531066894531 110.219970703125 9.775177001953125 110.219970703125 L 74.943115234375 110.219970703125 C 79.78176879882813 110.219970703125 83.71830749511719 106.2834320068359 83.71830749511719 101.4447555541992 L 83.71830749511719 29.32556915283203 C 83.71830749511719 28.73095703125 83.47713470458984 28.14883422851563 83.05650329589844 27.72835540771484 L 56.98982620239258 1.661674499511719 C 56.56948852539063 1.241172790527344 55.98736572265625 1 55.39273452758789 1 L 9.775177001953125 1 M 9.775177001953125 0 L 55.39273452758789 0 C 56.25816345214844 0 57.08862686157227 0.3460311889648438 57.69707489013672 0.9547119140625 L 83.76361083984375 27.02124786376953 C 84.34532165527344 27.60275268554688 84.71830749511719 28.43712615966797 84.71830749511719 29.32556915283203 L 84.71830749511719 101.4447555541992 C 84.71830749511719 106.8348007202148 80.33316802978516 111.219970703125 74.943115234375 111.219970703125 L 9.775177001953125 111.219970703125 C 4.3851318359375 111.219970703125 -7.62939453125e-06 106.8348007202148 -7.62939453125e-06 101.4447555541992 L -7.62939453125e-06 9.775184631347656 C -7.62939453125e-06 4.385139465332031 4.3851318359375 0 9.775177001953125 0 Z"/></g><path class="d" d="M0,0,27.4,27.4H5.975A5.982,5.982,0,0,1,0,21.426Z" transform="translate(213.561 329.036) rotate(1)"/><rect class="e" width="34.866" height="2.906" rx="1.453" transform="translate(164.746 338.787)"/><rect class="e" width="49.771" height="2.906" rx="1.453" transform="translate(164.746 418.687)"/><rect class="e" width="35.279" height="2.906" rx="1.453" transform="translate(164.331 345.617)"/><rect class="e" width="26.94" height="2.906" rx="1.453" transform="translate(164.331 425.52)"/><rect class="e" width="14.941" height="2.906" rx="1.453" transform="translate(164.331 352.448)"/><rect class="f" width="65.374" height="45.036" rx="6" transform="translate(164.704 365.102) rotate(1)"/><path class="g" d="M9.079,1.521a1,1,0,0,1,1.737,0L19.041,15.93a1,1,0,0,1-.868,1.5H1.722a1,1,0,0,1-.868-1.5Z" transform="matrix(-0.017, 1, -1, -0.017, 206.469, 379.005)"/></g></svg>