<svg xmlns="http://www.w3.org/2000/svg" xmlns:xlink="http://www.w3.org/1999/xlink" width="60" height="60" viewBox="0 0 60 60"><defs><style>.a{fill:url(#a);}.b{fill:#fff;}.c,.e{fill:none;}.d{fill:url(#b);}.e{stroke:#488cfe;stroke-linecap:round;stroke-linejoin:bevel;}</style><linearGradient id="a" x1="0.338" y1="0.079" x2="0.72" y2="0.862" gradientUnits="objectBoundingBox"><stop offset="0" stop-color="#3261fc"/><stop offset="1" stop-color="#519dff"/></linearGradient><linearGradient id="b" x1="0.338" y1="0.079" x2="0.72" y2="0.862" gradientUnits="objectBoundingBox"><stop offset="0" stop-color="#fff"/><stop offset="1" stop-color="#fff"/></linearGradient></defs><g transform="translate(-16 -44)"><rect class="a" width="60" height="60" rx="30" transform="translate(16 44)"/><g transform="translate(30 59)"><g transform="translate(10.995 24.657)"><path class="b" d="M1.495,2.843H0A4.805,4.805,0,0,1,4.214,0,4.8,4.8,0,0,1,8.427,2.84l-1.492,0a3.45,3.45,0,0,0-2.72-1.421A3.444,3.444,0,0,0,1.5,2.843Z"/></g><path class="c" d="M0,0H30V30H0Z"/><ellipse class="d" cx="10.277" cy="10.107" rx="10.277" ry="10.107" transform="translate(5 3.5)"/><path class="e" d="M1069.749-3178.326a3.022,3.022,0,0,0,2.757,1.5,2.923,2.923,0,0,0,2.648-1.5" transform="translate(-1056.857 3195.615)"/></g></g></svg>