<svg xmlns="http://www.w3.org/2000/svg" xmlns:xlink="http://www.w3.org/1999/xlink" width="80" height="30" viewBox="0 0 80 30">
  <defs>
    <clipPath id="clip-path">
      <path id="Path_60189" data-name="Path 60189" d="M924,511h6.531v11.223H924Zm0,0" transform="translate(-924 -511)" fill="#4b4b4b"/>
    </clipPath>
  </defs>
  <g id="samsungtv" transform="translate(-1363 -2264)">
    <g id="Rectangle_10328" data-name="Rectangle 10328" transform="translate(1363 2264)" fill="#fff" stroke="#707070" stroke-width="1" opacity="0">
      <rect width="80" height="30" stroke="none"/>
      <rect x="0.5" y="0.5" width="79" height="29" fill="none"/>
    </g>
    <g id="Samsung-Smart-TV-logo" transform="translate(1340.805 2716.495)">
      <path id="Path_60168" data-name="Path 60168" d="M25.855-449.91a1.063,1.063,0,0,0-.537.569,1.886,1.886,0,0,0,.038,1.113c.141.294.429.473,1.247.755.851.3.947.377.947.819,0,.691-.147.812-.959.812-.62,0-.748-.058-.806-.358s-.294-.429-.48-.237c-.115.109-.128.179-.09.4.1.556.461.761,1.362.768,1.132,0,1.548-.365,1.548-1.362a1.794,1.794,0,0,0-.09-.582c-.16-.39-.243-.441-1.548-.934-.55-.2-.665-.326-.665-.7,0-.467.237-.64.857-.64.409,0,.64.115.665.32.051.339.416.512.569.269a.926.926,0,0,0-.147-.787c-.23-.256-.441-.313-1.094-.313a2.943,2.943,0,0,0-.817.088Z" fill="#4b4b4b"/>
      <path id="Path_60169" data-name="Path 60169" d="M210.672-431.708c-.467.122-.64.358-.64.9,0,.64.141.774,1.119,1.055a4.178,4.178,0,0,1,.691.237.694.694,0,0,1-.032.684c-.1.128-.166.141-.627.122l-.512-.019-.134-.256c-.083-.166-.179-.262-.275-.275-.185-.032-.262.077-.262.371,0,.492.358.7,1.2.7.627,0,1.03-.147,1.151-.422a1.867,1.867,0,0,0,.077-.6c0-.64-.134-.78-1.011-1.023a4.016,4.016,0,0,1-.755-.262.489.489,0,0,1-.09-.32c0-.326.173-.441.646-.441.371,0,.569.115.569.326a.276.276,0,0,0,.3.249c.377,0,.3-.684-.1-.921a2.555,2.555,0,0,0-1.315-.1Z" transform="translate(-172.983 -17.083)" fill="#4b4b4b"/>
      <path id="Path_60170" data-name="Path 60170" d="M261.266-431.845c-.109.083-.122.192-.141,1.113-.026,1.247.038,1.65.326,1.957.269.281.563.358,1.4.358.537,0,.7-.019.78-.1s.1-.326.1-1.644a14.638,14.638,0,0,0-.051-1.618.273.273,0,0,0-.184-.108.273.273,0,0,0-.206.057c-.128.1-.134.147-.134,1.471v1.369h-.55a2.294,2.294,0,0,1-.665-.064c-.2-.109-.256-.429-.256-1.6,0-1.062-.006-1.145-.122-1.209C261.406-431.954,261.419-431.954,261.266-431.845Z" transform="translate(-220.833 -16.914)" fill="#4b4b4b"/>
      <path id="Path_60171" data-name="Path 60171" d="M83.429-430.84a.245.245,0,0,0-.1.249c.019.147.045.154.691.2.582.045.684.07.787.192a.423.423,0,0,1,.1.288c-.019.141-.045.147-.659.173-1.062.032-1.247.2-1.247,1.151,0,.608,0,.608.217.825a1.02,1.02,0,0,0,.422.262,7.551,7.551,0,0,0,1.727-.026c.077-.051.1-.275.115-1.26.026-1.414-.032-1.644-.448-1.925-.23-.147-.339-.173-.876-.192C83.7-430.923,83.512-430.9,83.429-430.84Zm1.49,2.271v.608l-.614-.026c-.755-.026-.812-.077-.78-.672a1.226,1.226,0,0,1,.077-.448,5.846,5.846,0,0,1,1.273-.1,2.375,2.375,0,0,1,.044.638Z" transform="translate(-54.107 -17.868)" fill="#4b4b4b"/>
      <path id="Path_60172" data-name="Path 60172" d="M137.2-430.975a7.475,7.475,0,0,0-.058,1.7c.019,1.433.032,1.625.128,1.682.077.051.154.045.269-.019l.166-.083v-2.8h1.023v2.814l.154.07a.289.289,0,0,0,.288,0c.128-.07.134-.115.134-1.478V-430.5h.345a.75.75,0,0,1,.493.122c.154.122.154.147.173,1.388a6.449,6.449,0,0,0,.09,1.35.328.328,0,0,0,.422.006,12.435,12.435,0,0,0,.013-2.686,1.08,1.08,0,0,0-.832-.684,11.5,11.5,0,0,0-2.808.025Z" transform="translate(-104.784 -17.72)" fill="#4b4b4b"/>
      <path id="Path_60173" data-name="Path 60173" d="M318.192-430.708a.347.347,0,0,0-.141.109,15.273,15.273,0,0,0-.051,1.657v1.58l.154.07a.289.289,0,0,0,.288,0c.128-.07.134-.115.134-1.478v-1.407h.537c.435,0,.563.026.691.128.166.128.166.128.192,1.369.026,1.279.058,1.446.3,1.446s.262-.115.262-1.407c0-1.171-.006-1.273-.141-1.535-.224-.429-.486-.531-1.394-.556a4.864,4.864,0,0,0-.831.024Z" transform="translate(-274.075 -18.032)" fill="#4b4b4b"/>
      <path id="Path_60174" data-name="Path 60174" d="M373.183-430.863c-.032.013-.173.038-.307.064-.588.1-.876.646-.876,1.663,0,1.311.352,1.7,1.561,1.7h.5l-.026.4c-.026.326-.058.416-.2.544s-.243.147-.646.147c-.6,0-.8.07-.8.281a.27.27,0,0,0,.122.23,3.015,3.015,0,0,0,1.247-.006,1.222,1.222,0,0,0,.8-.793,17.456,17.456,0,0,0,.07-2.149c0-1.689-.013-1.906-.109-1.983a3.935,3.935,0,0,0-1.336-.1Zm.863,1.7v1.151h-.537c-.64,0-.716-.026-.838-.262a3.824,3.824,0,0,1-.006-1.682c.128-.3.249-.352.857-.358h.525Z" transform="translate(-324.621 -17.889)" fill="#4b4b4b"/>
      <path id="Path_60175" data-name="Path 60175" d="M54.4-291.65a3.913,3.913,0,0,0-2.994,1.829,2.818,2.818,0,0,0-.185,2.375,2.818,2.818,0,0,0,1.7,1.668,7.394,7.394,0,0,0,2.079.39c1.362.173,1.733.294,2.124.684a1.416,1.416,0,0,1,.467,1.171c-.006.908-.563,1.5-1.644,1.759a3.791,3.791,0,0,1-2.495-.2,2.465,2.465,0,0,1-1.222-1.663l-.083-.4-.723-.019-.723-.019.038.377a4.73,4.73,0,0,0,.544,1.58,4.259,4.259,0,0,0,4.266,1.829,4.268,4.268,0,0,0,2.245-.793,3.021,3.021,0,0,0,.966-3.806,3.273,3.273,0,0,0-2-1.669,16.9,16.9,0,0,0-1.708-.294c-1.548-.2-1.836-.281-2.162-.608a1.589,1.589,0,0,1-.377-1.174,1.589,1.589,0,0,1,.577-1.09,3.08,3.08,0,0,1,2.379-.492,2.073,2.073,0,0,1,1.893,1.689l.109.461h1.4l-.019-.288a3.472,3.472,0,0,0-1.938-2.814,5.967,5.967,0,0,0-.921-.352,5.785,5.785,0,0,0-1.594-.131Z" transform="translate(-23.873 -148.205)" fill="#4b4b4b"/>
      <path id="Path_60177" data-name="Path 60177" d="M938-289.488v.512h3.518v10.106h1.023v-10.106h2.936l.128.352a3.487,3.487,0,0,1,.134.39,2.2,2.2,0,0,0,.115.3c.23.531.537,1.318,2.29,5.866.115.3.441,1.132.716,1.855l.505,1.311h.992l.281-.736c.154-.4.377-1,.5-1.311s.844-2.2,1.612-4.19,1.477-3.87,1.6-4.183a6.022,6.022,0,0,0,.217-.614,1.247,1.247,0,0,0-.524-.045l-.524.013-.186.48c-.1.262-.217.582-.262.7s-.422,1.113-.838,2.207-.857,2.271-.991,2.623-.365.953-.512,1.343-.39,1.017-.537,1.4a3.059,3.059,0,0,1-.32.691,23.679,23.679,0,0,1-1.222-2.987c-.122-.32-.435-1.126-.7-1.791s-.678-1.746-.934-2.4-.544-1.42-.659-1.708c-.141-.371-.243-.531-.333-.556-.07-.019-1.906-.038-4.074-.038H938Z" transform="translate(-854.417 -149.766)" fill="#4b4b4b"/>
      <path id="Path_60178" data-name="Path 60178" d="M445.132-288.762c-.045.1-.288.71-.537,1.362l-.672,1.759c-.416,1.055-1.452,3.761-1.932,5.021-.256.684-.582,1.542-.729,1.906a5.056,5.056,0,0,0-.262.748c0,.077.128.1.723.1h.716l.141-.371c.083-.2.3-.768.493-1.26s.429-1.107.525-1.362l.179-.461h4.049l.1.237c.058.134.358.9.672,1.714l.569,1.471h.729c.454,0,.723-.026.716-.064s-.32-.857-.691-1.823c-.652-1.689-.78-2.015-1.5-3.87-.179-.461-.454-1.164-.608-1.567s-.537-1.4-.857-2.207l-.576-1.471-.576-.019C445.228-288.941,445.228-288.941,445.132-288.762Zm.851,2.655c.294.774.6,1.561.94,2.437a8.747,8.747,0,0,1,.345.979c0,.077-.23.09-1.458.09-.806,0-1.478-.019-1.5-.038a1.4,1.4,0,0,1,.128-.467c.09-.23.4-1.068.7-1.861s.556-1.458.569-1.484C445.778-286.561,445.836-286.484,445.983-286.107Z" transform="translate(-389.207 -150.768)" fill="#4b4b4b"/>
      <path id="Path_60179" data-name="Path 60179" d="M619-283.661v5.539h1.471v-9.659h1.65c1.791,0,2.156.051,2.661.345a1.857,1.857,0,0,1,.461.39,2.186,2.186,0,0,1-.051,2.424,2.051,2.051,0,0,1-.614.435l-.429.211-1.356.019-1.362.026v1.394h2.162l.1.237c.051.134.23.531.4.883s.537,1.145.825,1.759.569,1.215.627,1.324l.115.211h.761a6.986,6.986,0,0,0,.768-.019c0-.013-.077-.179-.166-.371s-.23-.493-.313-.665-.352-.768-.608-1.311a18.7,18.7,0,0,1-1.075-2.4c.013-.006.2-.109.422-.224a3.167,3.167,0,0,0,1.49-1.887,4.386,4.386,0,0,0-.064-1.977,3.131,3.131,0,0,0-2.341-2.034,11.808,11.808,0,0,0-3.019-.166L619-289.2Z" transform="translate(-555.822 -150.515)" fill="#4b4b4b"/>
      <path id="Path_60180" data-name="Path 60180" d="M765-288.3v.7h3.326v9.659h1.407V-287.6l1.682-.013,1.676-.019v-1.343l-4.043-.019L765-289Z" transform="translate(-692.483 -150.702)" fill="#4b4b4b"/>
      <g id="surface1" transform="translate(37.239 -443.274)">
        <path id="Path_60187" data-name="Path 60187" d="M1.633,524.575l-1.451-.991a.091.091,0,0,1-.015-.016l-.013-.018V513.4c.017-.011.013-.029.014-.045q.9.506,1.808,1.013l2.1,1.183q1.047.589,2.1,1.175c.168.094.331.2.505.276v1.893a.08.08,0,0,0,.017.062.027.027,0,0,1,0,.013H6.675a.011.011,0,0,0-.01,0l-.036-.026L2.7,516.73c-.337-.19-.675-.378-1.013-.567l-.017-.013c-.06-.007-.03.041-.03.059v8.366" transform="translate(-0.151 -509.738)" fill="#4b4b4b" fill-rule="evenodd"/>
        <g id="Group_32659" data-name="Group 32659" transform="translate(6.518 3.605)" clip-path="url(#clip-path)">
          <path id="Path_60188" data-name="Path 60188" d="M924.861,517.523c-.022-.016-.018-.04-.018-.062v-1.887l1.832-1.029,2.055-1.153q1.174-.66,2.346-1.322a1,1,0,0,0,.246-.152l.031-.008h0a.362.362,0,0,1,.006.12q0,5.005,0,10.01a.14.14,0,0,1-.07.133c-.458.311-.914.625-1.371.938l-.027.014c-.024-.025-.015-.057-.015-.086v-8.266c0-.022.008-.045-.008-.065a.136.136,0,0,0-.067.03l-3.827,2.159q-.558.315-1.117.626" transform="translate(-924.837 -511.904)" fill="#4b4b4b" fill-rule="evenodd"/>
        </g>
        <path id="Path_60190" data-name="Path 60190" d="M209.236,917.3v-8.366c0-.018-.03-.066.03-.059-.027.015-.015.04-.016.062s0,.031,0,.046v6.1a.03.03,0,0,0,0,.014V916.2c0,.073.023.086.09.086h4.843a.156.156,0,0,0,.1-.015.027.027,0,0,1,.006.013v4.388c0,.024-.007.051.014.071-.038.005-.062-.023-.088-.041l-1.527-1.047L211,918.51l-1.762-1.21" transform="translate(-207.754 -902.463)" fill="#848484" fill-rule="evenodd"/>
        <path id="Path_60191" data-name="Path 60191" d="M924.711,1962.31c-.021-.021-.014-.047-.014-.071v-4.388h4.946a.139.139,0,0,0,.088-.014v.93c0,.029-.009.061.015.086l-2.095,1.439-2.948,2.018" transform="translate(-918.173 -1944.03)" fill="#848484" fill-rule="evenodd"/>
        <path id="Path_60192" data-name="Path 60192" d="M931.254,510.984a1,1,0,0,1-.246.152q-1.172.663-2.346,1.322l-2.055,1.153-1.832,1.029v-3.666h6.459l.019.015" transform="translate(-918.25 -507.365)" fill="#848484" fill-rule="evenodd"/>
        <path id="Path_60193" data-name="Path 60193" d="M8.922,511.077v3.66c-.174-.081-.338-.183-.505-.277l-2.1-1.175-2.1-1.183q-.9-.508-1.808-1.013a.009.009,0,0,1,0-.009.039.039,0,0,1,.013-.007h6.5" transform="translate(-2.399 -507.465)" fill="#a0a0a0" fill-rule="evenodd"/>
        <path id="Path_60194" data-name="Path 60194" d="M10.957,3.612H4.465a1.742,1.742,0,0,1,.323-.191C5.158,3.2,5.532,3,5.9,2.794l1.4-.775L8.411,1.4q.535-.3,1.07-.594l1.434-.8c.018-.01.031-.015.046,0V3.6h0" transform="translate(-4.433 0.001)" fill="#b9b9b9" fill-rule="evenodd"/>
        <path id="Path_60195" data-name="Path 60195" d="M924.823,5.186V1.59c.316.174.633.347.948.522s.619.348.929.521c.276.153.553.3.828.456.339.188.676.38,1.015.568.3.169.611.334.915.5.339.188.677.379,1.016.568.243.135.487.269.73.4.022.012.043.025.064.038H924.93c-.031,0-.066-.014-.093.014h-.014" transform="translate(-918.297 -1.579)" fill="#a0a0a0" fill-rule="evenodd"/>
        <path id="Path_60196" data-name="Path 60196" d="M927.23,508.719c.027-.028.062-.014.093-.014h6.339l.013.014H927.23" transform="translate(-920.69 -505.113)" fill="#f3b7ca" fill-rule="evenodd"/>
        <path id="Path_60197" data-name="Path 60197" d="M.02,512.059a.009.009,0,0,0,0,.009.053.053,0,0,1-.014.045c0-.019-.019-.044.015-.054" transform="translate(-0.001 -508.447)" fill="#242224" fill-rule="evenodd"/>
        <path id="Path_60198" data-name="Path 60198" d="M1847.94,511.344h0" transform="translate(-1834.905 -507.733)" fill="#e7418b" fill-rule="evenodd"/>
        <path id="Path_60199" data-name="Path 60199" d="M.494,1957.97l.013.018a.014.014,0,0,1-.013-.018" transform="translate(-0.49 -1944.159)" fill="#242224" fill-rule="evenodd"/>
        <path id="Path_60200" data-name="Path 60200" d="M926.708,911.311l1.117-.626,3.827-2.159c.021-.012.04-.031.067-.03.016.021.008.044.008.065v6.293c-.106-.071-.212-.141-.317-.214l-2.548-1.793-1.674-1.178c-.162-.114-.322-.23-.483-.345a.029.029,0,0,0,0-.013" transform="translate(-920.166 -902.088)" fill="#a0a0a0" fill-rule="evenodd"/>
        <path id="Path_60201" data-name="Path 60201" d="M212.34,910.9v-.046l.033-.049c.338.189.676.377,1.013.567l3.934,2.22a.408.408,0,0,1,.036.026,2.653,2.653,0,0,1-.227.158c-.279.2-.555.4-.835.594-.212.149-.431.289-.641.442-.374.273-.756.534-1.133.8l-.765.541c-.237.168-.475.334-.712.5s-.47.327-.7.491v-.059c.018-.015.018-.03,0-.044v-.031h.005l-.005-.01c0-.011,0-.021,0-.031.024-.023.014-.052.014-.079v-5.91c0-.026.01-.056-.014-.079" transform="translate(-210.842 -904.384)" fill="#a0a0a0" fill-rule="evenodd"/>
        <path id="Path_60202" data-name="Path 60202" d="M924.744,1309.38c.161.115.321.231.483.345l1.674,1.178,2.548,1.793c.1.073.211.143.317.215v1.043a.138.138,0,0,1-.088.014h-4.946a.029.029,0,0,0-.006-.013c0-.03,0-.06,0-.091v-4.483h.013" transform="translate(-918.207 -1300.142)" fill="#b9b9b9" fill-rule="evenodd"/>
        <path id="Path_60203" data-name="Path 60203" d="M216.963,1309.34v4.574a.156.156,0,0,1-.1.015H212.02c-.066,0-.091-.014-.09-.086v-.973c.234-.164.471-.326.7-.491s.475-.334.712-.5l.765-.541c.378-.267.76-.528,1.133-.8.209-.153.429-.293.641-.442.279-.2.556-.4.835-.594a2.689,2.689,0,0,0,.227-.158.011.011,0,0,1,.01,0" transform="translate(-210.439 -1300.105)" fill="#b9b9b9" fill-rule="evenodd"/>
        <path id="Path_60204" data-name="Path 60204" d="M212.091,908.993l-.033.049c0-.022-.011-.047.016-.062l.017.013" transform="translate(-210.56 -902.568)" fill="#f6ec96" fill-rule="evenodd"/>
        <path id="Path_60205" data-name="Path 60205" d="M212.107,924.359c.024.023.014.052.014.079v5.91c0,.026.01.056-.014.079V924.36" transform="translate(-210.609 -917.839)" fill="#f6ec96" fill-rule="evenodd"/>
        <path id="Path_60206" data-name="Path 60206" d="M212.34,1795.33q.028.023,0,.045v-.045" transform="translate(-210.842 -1782.666)" fill="#f6ec96" fill-rule="evenodd"/>
        <path id="Path_60207" data-name="Path 60207" d="M212.248,1788.94l.005.01h-.005a.029.029,0,0,1,0-.014" transform="translate(-210.75 -1776.321)" fill="#f6ec96" fill-rule="evenodd"/>
      </g>
    </g>
  </g>
</svg>
